<svg xmlns="http://www.w3.org/2000/svg" width="94.326" height="154.491" viewBox="0 0 94.326 154.491"><g transform="translate(-2.538 -1.278)"><g transform="matrix(1, 0.017, -0.017, 1, 3.36, 0.192)"><path d="M55.15,1.655c-.045,1.938-.164,3.845-.353,5.71-.023.249-.052.5-.078.742-.023.181-.042.357-.062.535-.063.517-.13,1.028-.205,1.537-.031.233-.065.462-.1.692-.068.462-.146.921-.226,1.374-.037.228-.078.456-.122.682-.065.354-.132.708-.2,1.057a.034.034,0,0,1-.005.021c-.057.294-.119.59-.182.884l-.057.262c-.052.231-.1.456-.158.682-.031.152-.068.3-.1.454-.016.066-.031.131-.05.194-.062.273-.13.543-.2.813q-.487,1.888-1.072,3.682c-.094.3-.195.6-.3.892-.091.27-.187.543-.283.81-.011.037-.026.068-.036.1-.1.262-.192.522-.293.782-.01.031-.021.06-.031.089-.086.215-.169.433-.255.648-.046.123-.1.244-.148.365-.057.147-.117.294-.179.438-.047.123-.1.249-.156.372-.093.223-.187.441-.286.661-.111.252-.22.5-.335.75s-.236.509-.358.758c-.086.181-.174.362-.265.54-.039.079-.081.155-.117.233v0c-.335.661-.675,1.3-1.031,1.93-.109.2-.221.386-.329.574-.047.081-.1.163-.148.247-.106.186-.218.367-.329.548s-.213.344-.317.511c-.151.233-.3.464-.452.692-.021.031-.042.066-.065.1-.13.194-.26.391-.392.58s-.265.38-.4.567c-.021.029-.044.063-.067.092-.155.22-.316.433-.475.645l0,0c-3.847,5.062-8.544,8.477-13.694,9.586V62.015H23.918V44.492c-5.147-1.109-9.85-4.524-13.694-9.589A41.722,41.722,0,0,1,6.217,28.42,57.772,57.772,0,0,1,1.146,12.928q-.5-2.715-.794-5.563C.162,5.5.043,3.593,0,1.655A1.61,1.61,0,0,1,1.6,0H53.548A1.614,1.614,0,0,1,55.15,1.655Z" transform="translate(19.52 20.239)" fill="#ffab00"/><path d="M55.15,1.655c-.045,1.938-.164,3.845-.353,5.71-.023.249-.052.5-.078.742-.023.181-.042.357-.062.535-.063.517-.13,1.028-.205,1.537-.031.233-.065.462-.1.692-.068.462-.146.921-.226,1.374-.037.228-.078.456-.122.682-.065.354-.132.708-.2,1.057a.034.034,0,0,1-.005.021c-.057.294-.119.59-.182.884l-.057.262c-.052.231-.1.456-.158.682-.031.152-.068.3-.1.454-.016.066-.031.131-.05.194-.062.273-.13.543-.2.813q-.487,1.888-1.072,3.682c-.094.3-.195.6-.3.892-.091.27-.187.543-.283.81-.011.037-.026.068-.036.1-.1.262-.192.522-.293.782-.01.031-.021.06-.031.089-.086.215-.169.433-.255.648-.046.123-.1.244-.148.365-.057.147-.117.294-.179.438-.047.123-.1.249-.156.372-.093.223-.187.441-.286.661-.111.252-.22.5-.335.75s-.236.509-.358.758c-.086.181-.174.362-.265.54-.039.079-.081.155-.117.233v0c-.335.661-.675,1.3-1.031,1.93-.109.2-.221.386-.329.574-.047.081-.1.163-.148.247-.106.186-.218.367-.329.548s-.213.344-.317.511c-.151.233-.3.464-.452.692-.021.031-.042.066-.065.1-.13.194-.26.391-.392.58s-.265.38-.4.567c-.021.029-.044.063-.067.092-.155.22-.316.433-.475.645l0,0c-3.847,5.062-8.544,8.477-13.694,9.586V62.015H23.918V44.492c-5.147-1.109-9.85-4.524-13.694-9.589A41.722,41.722,0,0,1,6.217,28.42,57.772,57.772,0,0,1,1.146,12.928q-.5-2.715-.794-5.563C.162,5.5.043,3.593,0,1.655A1.61,1.61,0,0,1,1.6,0H53.548A1.614,1.614,0,0,1,55.15,1.655Z" transform="translate(19.52 20.239)" fill="rgba(255,255,255,0.4)"/><path d="M31.878,63.409H24.566c-.526-.046-.607-.173-.649-.655v-17l-.293-.074a23.255,23.255,0,0,1-10.89-6.844A41.6,41.6,0,0,1,5.247,27.259,59.493,59.493,0,0,1,1.389,15.1,70.055,70.055,0,0,1,0,2.381,2.34,2.34,0,0,1,2.221.083C10.881.028,19.648,0,28.276,0s17.359.028,25.95.083a2.315,2.315,0,0,1,2.221,2.3c-.032,1.976-.171,4.084-.425,6.444l-.058.5c-.192,1.691-.472,3.457-.854,5.4-.012.058-.3,1.418-.469,2.169a60.2,60.2,0,0,1-1.987,6.737l-.017.047-.017.047c-.126.355-.314.846-.335.9a50.669,50.669,0,0,1-2.041,4.66c-.094.183-.143.283-.186.369-.03.06-.056.112-.09.18-.412.8-.813,1.526-1.226,2.229l-.071.118c-.018.03-.03.05-.122.206-.241.4-.573.932-.576.937a34.957,34.957,0,0,1-6.586,7.687,21.7,21.7,0,0,1-8.862,4.745v17C32.481,63.285,32.355,63.367,31.878,63.409ZM36.891,1.345c-5.764,0-11.625.012-17.294.025h-.025c-5.676.012-11.545.025-17.319.025a.989.989,0,0,0-.955.969,67.13,67.13,0,0,0,2.679,18,45.471,45.471,0,0,0,8.219,15.9c2.553,3.112,6.795,7.081,12.507,8.323a.713.713,0,0,1,.512.641V62.1h6.014V45.23c.051-.6.366-.651.764-.714.106-.017.216-.034.329-.062a20.19,20.19,0,0,0,7.329-3.676,29.227,29.227,0,0,0,5.757-6.006,43.731,43.731,0,0,0,3.584-5.89,1.786,1.786,0,0,1,.173-.361,1.022,1.022,0,0,0,.054-.095c.377-.766.744-1.57,1.091-2.389,0-.009.379-.915.762-1.882.066-.183.087-.237.11-.295l.034-.087a51.082,51.082,0,0,0,2.048-6.72c.218-.775.349-1.448.488-2.162l.054-.277c0-.011.23-1.146.327-1.743A69.872,69.872,0,0,0,55.14,2.738a1.539,1.539,0,0,0-.352-1.087.8.8,0,0,0-.579-.256C49.034,1.361,43.369,1.345,36.891,1.345Z" transform="translate(18.871 19.501)" fill="#ffab00"/><path d="M30.718,7.338H0a7.352,7.352,0,0,1,2.128-5.19A7.2,7.2,0,0,1,7.262,0H23.455A7.3,7.3,0,0,1,30.718,7.338Z" transform="translate(31.735 82.254)" fill="#ffab00"/><path d="M30.718,7.338H0a7.352,7.352,0,0,1,2.128-5.19A7.2,7.2,0,0,1,7.262,0H23.455A7.3,7.3,0,0,1,30.718,7.338Z" transform="translate(31.735 82.254)" fill="rgba(255,255,255,0.4)"/><path d="M31.341,8.663H.624A.539.539,0,0,1,.2,8.43C-.222,7.836.13,6.353.248,5.913A8.071,8.071,0,0,1,7.834.013C10.537,0,13.278,0,15.982,0s5.446,0,8.148.013a7.964,7.964,0,0,1,5.444,2.341,7.952,7.952,0,0,1,2.416,5.6C31.989,7.962,31.878,8.627,31.341,8.663ZM18.71,1.317q-2.706,0-5.412,0t-5.412,0A6.591,6.591,0,0,0,3.516,3.062,6.666,6.666,0,0,0,1.307,7.322l29.354.029c-.005-.052-.011-.1-.017-.155a6.7,6.7,0,0,0-2.176-4.117,6.571,6.571,0,0,0-4.347-1.755C22.5,1.319,20.732,1.317,18.71,1.317Z" transform="translate(31.112 81.586)" fill="#ffab00"/><path d="M45.04,9.648H0V6.563A6.53,6.53,0,0,1,6.5,0H38.545a6.53,6.53,0,0,1,6.5,6.563Z" transform="translate(24.576 89.593)" fill="#ffab00"/><path d="M45.04,9.648H0V6.563A6.53,6.53,0,0,1,6.5,0H38.545a6.53,6.53,0,0,1,6.5,6.563Z" transform="translate(24.576 89.593)" fill="rgba(255,255,255,0.4)"/><path d="M45.719,11.013H.679c-.523-.041-.612-.184-.649-.655,0-.371-.008-.748-.015-1.112A12.225,12.225,0,0,1,.449,4.833,7.3,7.3,0,0,1,7.082.055C10.883.018,15,0,19.678,0c4.7,0,9.472.018,14.09.035l5.5.02a7.174,7.174,0,0,1,4.937,2.16,7.182,7.182,0,0,1,2.16,5.058v3.085C46.327,10.886,46.185,10.977,45.719,11.013ZM28.566,1.351c-3.572,0-7.194,0-10.7.008s-7.123.008-10.7.008A5.867,5.867,0,0,0,3.11,3.121,5.879,5.879,0,0,0,1.328,7.275V9.7H45.07c0-.285.005-.575.01-.855a10.015,10.015,0,0,0-.353-3.571,5.964,5.964,0,0,0-5.466-3.91C36.064,1.356,32.565,1.351,28.566,1.351Z" transform="translate(23.897 88.882)" fill="#ffab00"/><path d="M54.073,19.183H1.079A1.085,1.085,0,0,1,0,18.093V6.259A6.227,6.227,0,0,1,6.194,0H48.957a6.227,6.227,0,0,1,6.194,6.259V18.093A1.085,1.085,0,0,1,54.073,19.183Z" transform="translate(19.519 96.277)" fill="#8592a3"/><path d="M54.073,19.183H1.079A1.085,1.085,0,0,1,0,18.093V6.259A6.227,6.227,0,0,1,6.194,0H48.957a6.227,6.227,0,0,1,6.194,6.259V18.093A1.085,1.085,0,0,1,54.073,19.183Z" transform="translate(19.519 96.277)" fill="rgba(0,0,0,0.1)"/><path d="M37.118,20.664c-5.895,0-11.886-.025-17.681-.049s-11.786-.049-17.681-.049a1.8,1.8,0,0,1-1.724-1.7c-.044-3.5-.044-7.3,0-11.967A7.041,7.041,0,0,1,6.787.072C11.9.023,17.433,0,23.7,0c6.4,0,12.9.024,19.19.048l6.788.024A6.885,6.885,0,0,1,54.394,2.1a6.88,6.88,0,0,1,2.088,4.841c.008,2.639.006,5.322,0,7.917q0,1.987,0,3.965A1.8,1.8,0,0,1,54.8,20.566C49.51,20.632,43.727,20.664,37.118,20.664Zm-1.709-19.3c-4.75,0-9.579.005-14.25.01h-.032c-4.67.005-9.5.01-14.25.01A5.577,5.577,0,0,0,3.032,3.021a5.576,5.576,0,0,0-1.7,3.93q0,1.3-.011,2.608c-.014,3.041-.028,6.183.011,9.273a.447.447,0,0,0,.419.423c8.795.11,17.713.165,26.508.165s17.713-.056,26.508-.165a.445.445,0,0,0,.418-.423c.043-3.509.043-7.3,0-11.918a5.694,5.694,0,0,0-1.648-3.836,5.468,5.468,0,0,0-3.861-1.694C45.41,1.369,40.743,1.363,35.409,1.363Z" transform="translate(18.837 95.55)" fill="#8592a3"/><path d="M37.118,20.664c-5.895,0-11.886-.025-17.681-.049s-11.786-.049-17.681-.049a1.8,1.8,0,0,1-1.724-1.7c-.044-3.5-.044-7.3,0-11.967A7.041,7.041,0,0,1,6.787.072C11.9.023,17.433,0,23.7,0c6.4,0,12.9.024,19.19.048l6.788.024A6.885,6.885,0,0,1,54.394,2.1a6.88,6.88,0,0,1,2.088,4.841c.008,2.639.006,5.322,0,7.917q0,1.987,0,3.965A1.8,1.8,0,0,1,54.8,20.566C49.51,20.632,43.727,20.664,37.118,20.664Zm-1.709-19.3c-4.75,0-9.579.005-14.25.01h-.032c-4.67.005-9.5.01-14.25.01A5.577,5.577,0,0,0,3.032,3.021a5.576,5.576,0,0,0-1.7,3.93q0,1.3-.011,2.608c-.014,3.041-.028,6.183.011,9.273a.447.447,0,0,0,.419.423c8.795.11,17.713.165,26.508.165s17.713-.056,26.508-.165a.445.445,0,0,0,.418-.423c.043-3.509.043-7.3,0-11.918a5.694,5.694,0,0,0-1.648-3.836,5.468,5.468,0,0,0-3.861-1.694C45.41,1.369,40.743,1.363,35.409,1.363Z" transform="translate(18.837 95.55)" fill="rgba(0,0,0,0.2)"/><path d="M7.353,0h11.8q.288,2.846.794,5.564H6.932a.227.227,0,0,0-.225.238c.081,1.922,1.767,14.981,18.307,15.255a41.808,41.808,0,0,0,4.008,6.481C8.458,28.187,2.111,14.163.116,5.47A4.453,4.453,0,0,1,4.424,0Z" transform="translate(0.721 27.603)" fill="#ffab00"/><path d="M7.353,0h11.8q.288,2.846.794,5.564H6.932a.227.227,0,0,0-.225.238c.081,1.922,1.767,14.981,18.307,15.255a41.808,41.808,0,0,0,4.008,6.481C8.458,28.187,2.111,14.163.116,5.47A4.453,4.453,0,0,1,4.424,0Z" transform="translate(0.721 27.603)" fill="rgba(255,255,255,0.4)"/><path d="M28.378,28.869a33.694,33.694,0,0,1-11.016-1.748A24.507,24.507,0,0,1,7.925,21.34,30.711,30.711,0,0,1,.15,6.692a5.69,5.69,0,0,1,1.062-4.8A4.757,4.757,0,0,1,4.99,0H19.719L19.8.005c.611.125.609.5.607.861a2.274,2.274,0,0,0,.008.25c.173,1.566.4,3.129.67,4.645l.072.419a.689.689,0,0,1-.648.694H7.958a15.616,15.616,0,0,0,2.8,7.343,15.171,15.171,0,0,0,6.04,5.049,22.032,22.032,0,0,0,8.7,1.788.25.25,0,0,1,.062-.007c.124,0,.446.068.767.694A41.628,41.628,0,0,0,30.106,27.8a.786.786,0,0,1,.129.478c-.043.353-.412.572-.989.586C28.957,28.866,28.665,28.869,28.378,28.869ZM4.992,1.311a3.715,3.715,0,0,0-2.884,1.47,3.881,3.881,0,0,0-.769,3.3c.023.1.048.2.072.3A35.864,35.864,0,0,0,2.8,10.858,25.624,25.624,0,0,0,13.764,24.147a29.229,29.229,0,0,0,14.52,3.413s-.021-.029-.052-.076c-.871-1.319-1.392-2.164-1.675-2.641-.465-.781-.927-1.617-1.374-2.484a23.114,23.114,0,0,1-8.755-1.915,16.056,16.056,0,0,1-6.819-5.534A16.733,16.733,0,0,1,6.633,6.6a1.038,1.038,0,0,1,.244-.766.84.84,0,0,1,.615-.266H19.735l-.073-.429c-.2-1.218-.374-2.461-.513-3.7l-.014-.128Z" transform="translate(0.154 26.947)" fill="#ffab00"/><path d="M24.526,15.929C20.446,22.3,13.135,27.921,0,27.541l0,0c.16-.211.32-.424.477-.644L.547,26.8c.136-.186.268-.375.4-.567s.263-.383.393-.578l.065-.1c.152-.227.3-.457.45-.693q.158-.251.317-.509c.111-.181.222-.364.33-.55q.077-.124.146-.247c.111-.189.222-.378.331-.572q.532-.941,1.03-1.931v0C20.44,20.72,22.117,7.719,22.2,5.8a.226.226,0,0,0-.225-.238H9.08q.065-.341.122-.682c.081-.455.157-.914.225-1.374.038-.23.071-.46.1-.693q.109-.764.2-1.536C9.755,1.1,9.774.923,9.8.742,9.823.5,9.85.249,9.874,0H24.483a4.455,4.455,0,0,1,4.309,5.471,36.342,36.342,0,0,1-1.83,5.768" transform="translate(64.442 27.603)" fill="#ffab00"/><path d="M24.526,15.929C20.446,22.3,13.135,27.921,0,27.541l0,0c.16-.211.32-.424.477-.644L.547,26.8c.136-.186.268-.375.4-.567s.263-.383.393-.578l.065-.1c.152-.227.3-.457.45-.693q.158-.251.317-.509c.111-.181.222-.364.33-.55q.077-.124.146-.247c.111-.189.222-.378.331-.572q.532-.941,1.03-1.931v0C20.44,20.72,22.117,7.719,22.2,5.8a.226.226,0,0,0-.225-.238H9.08q.065-.341.122-.682c.081-.455.157-.914.225-1.374.038-.23.071-.46.1-.693q.109-.764.2-1.536C9.755,1.1,9.774.923,9.8.742,9.823.5,9.85.249,9.874,0H24.483a4.455,4.455,0,0,1,4.309,5.471,36.342,36.342,0,0,1-1.83,5.768" transform="translate(64.442 27.603)" fill="rgba(255,255,255,0.4)"/><path d="M11.135,1.632c-.148,1.3-.331,2.592-.553,3.873l-.015.083H22.729a.619.619,0,0,1,.489.183c.568.444.3,1.45.154,2.279a17.015,17.015,0,0,1-8.235,11.818,22.154,22.154,0,0,1-10.013,2.51S4.133,24.221,3.6,25.1l-.169.278q-.689,1.12-1.448,2.2l0,0c6.865-.007,13.87-1.917,18.961-6.764a24.806,24.806,0,0,0,3.7-4.494s.309-.436.71-.361c.48.09.764.491.228,1.306A25.844,25.844,0,0,1,9.524,28.13,36.521,36.521,0,0,1,1,28.884c-1.4-.031-1-.836-.752-1.127,0,0,.983-1.35,1.548-2.222A43.565,43.565,0,0,0,4.081,21.56c.338-.664,1.632-.5,2.706-.6,4.822-.454,9.732-2.518,12.63-6.64A15.966,15.966,0,0,0,22.226,6.9H9.791C8.871,6.84,9.363,5.062,9.6,3.4Q9.782,2.1,9.92.8s.036-.735.664-.774c4.895,0,9.79-.053,14.685,0a5.268,5.268,0,0,1,4.889,6.162,33.246,33.246,0,0,1-1.848,5.889c-.159.387-.888.722-1.2.17-.293-.516.388-1.607.73-2.609q.431-1.262.766-2.555a5.92,5.92,0,0,0,.263-2.814,3.866,3.866,0,0,0-3.646-2.931H11.168Q11.152,1.484,11.135,1.632Z" transform="translate(63.732 26.924)" fill="#ffab00"/><path d="M0,43.39s1.208-.157,2.361-.437A26.447,26.447,0,0,0,6.705,41.2a29.014,29.014,0,0,0,4.474-3.309,38.864,38.864,0,0,0,4.52-5.22,58.58,58.58,0,0,0,4.2-7.55,64.211,64.211,0,0,0,3.05-8.809A82.45,82.45,0,0,0,24.6,6.9c.194-1.731.32-4.424.378-5.88A.975.975,0,0,0,24.009,0h-6.7a84.471,84.471,0,0,1-1.887,20.042A40.47,40.47,0,0,1,0,43.39" transform="translate(49.015 20.938)" fill="rgba(0,0,0,0.25)" style="mix-blend-mode:overlay;isolation:isolate"/><path d="M-2.022,0A16.825,16.825,0,0,0,0,0L-2.043,15.881l-1.99-.256Z" transform="matrix(0.992, -0.128, 0.128, 0.992, 50.07, 65.564)" fill="rgba(0,0,0,0.25)" style="mix-blend-mode:overlay;isolation:isolate"/><path d="M6.849,5.945A6.349,6.349,0,0,0,4.636,1.611,6.65,6.65,0,0,0,.185,0H0S3,.865,3.6,5.945Z" transform="translate(54.867 82.948)" fill="rgba(0,0,0,0.25)" style="mix-blend-mode:overlay;isolation:isolate"/><path d="M6.108,5.312a5.424,5.424,0,0,0-1.884-3.88A5.6,5.6,0,0,0,.165.013H0s2.674.769,3.208,5.3Z" transform="translate(62.831 90.281)" fill="rgba(0,0,0,0.25)" style="mix-blend-mode:overlay;isolation:isolate"/><path d="M23.59,6.478l-.143.037.1.1a2.908,2.908,0,0,1-2.793,4.894l-.14-.039.039.139a2.855,2.855,0,0,1-.285,2.3l4.044,8.713a.217.217,0,0,1-.278.294l-4.119-1.723-1.323,4.3a.214.214,0,0,1-.4.026l-4.218-9.1a2.981,2.981,0,0,1-2.38,0L7.536,25.4a.267.267,0,0,1-.5-.034L5.756,21.195,1.761,22.863a.269.269,0,0,1-.345-.365L5.4,13.911a2.854,2.854,0,0,1-.288-2.3l.039-.139-.137.039a2.909,2.909,0,0,1-2.8-4.894l.1-.1-.14-.037a2.919,2.919,0,0,1,0-5.649l.14-.037-.1-.1A3.033,3.033,0,0,1,1.684,0h22.4a3.014,3.014,0,0,1-.537.692l-.1.1.143.037a2.919,2.919,0,0,1,0,5.649" transform="translate(33.053 20.938)" fill="rgba(0,0,0,0.25)" style="mix-blend-mode:overlay;isolation:isolate"/><path d="M3.933,2.309C1.969,2.207,2.019,0,2.019,0,1.967,2.424,0,2.309,0,2.309A2.233,2.233,0,0,1,2.019,4.56S2.272,2.5,3.933,2.309" transform="translate(25.867 26.333)" fill="#fff"/><path d="M2.418,1.42C1.211,1.357,1.241,0,1.241,0,1.209,1.49,0,1.42,0,1.42A1.373,1.373,0,0,1,1.241,2.8S1.4,1.539,2.418,1.42" transform="translate(29.317 29.613)" fill="#fff"/><path d="M-.171.8A.315.315,0,0,1-.447.909l-6.8-.035A.307.307,0,0,1-7.523.757.4.4,0,0,1-7.249.091l6.8.035C.238.155-.031.645-.171.8Z" transform="translate(45.197 46.579) rotate(-130.369)" fill="#3b1b6a"/><path d="M-.1.775A.407.407,0,0,1-.37.9Q-1.279.908-2.188.886c-.4-.024-.462-.759,0-.782Q-1.283.092-.374.114A.4.4,0,0,1-.1.775Z" transform="matrix(-0.648, -0.762, 0.762, -0.648, 48.473, 46.812)" fill="#3b1b6a"/><path d="M-.11.78A.413.413,0,0,1-.373.9c-1.3.028-2.6-.013-3.9-.02C-4.656.869-4.853.142-4.294.1-3,.071-1.7.112-.4.119A.393.393,0,0,1-.11.78Z" transform="matrix(-0.648, -0.762, 0.762, -0.648, 44.284, 49.121)" fill="#3b1b6a"/><path d="M0,.539a.406.406,0,0,1-.391.35H-4.979c-.3-.01-.3-.1-.357-.226A.4.4,0,0,1-4.979.111H-.393A.371.371,0,0,1,0,.539Z" transform="translate(39.172 96.539) rotate(-90)" fill="#8592a3"/><path d="M0,.539a.406.406,0,0,1-.391.35H-4.979c-.3-.01-.3-.1-.357-.226A.4.4,0,0,1-4.979.111H-.393A.371.371,0,0,1,0,.539Z" transform="translate(39.172 96.539) rotate(-90)" fill="rgba(0,0,0,0.2)"/><path d="M0,.559a.412.412,0,0,1-.389.33H-10.786c-.4-.02-.589-.749,0-.779H-.391A.4.4,0,0,1,0,.559Z" transform="translate(43.215 95.886) rotate(-90)" fill="#8592a3"/><path d="M0,.559a.412.412,0,0,1-.389.33H-10.786c-.4-.02-.589-.749,0-.779H-.391A.4.4,0,0,1,0,.559Z" transform="translate(43.215 95.886) rotate(-90)" fill="rgba(0,0,0,0.2)"/><path d="M10.307,2.515,6.146,11.487a.267.267,0,0,1-.5-.035L4.365,7.284.371,8.954a.269.269,0,0,1-.345-.365L4.01,0A2.985,2.985,0,0,0,5.684,1.3,2.767,2.767,0,0,0,8.566.523l.1-.1L8.7.558A2.8,2.8,0,0,0,10.307,2.515Z" transform="translate(35.599 30.496)" fill="#fff"/><path d="M6.535,12.913a.88.88,0,0,1-.864-.606L4.6,8.818l-3.37,1.408a.813.813,0,0,1-.27.046,1,1,0,0,1-.808-.454.868.868,0,0,1-.071-.849L4.064.375A.676.676,0,0,1,4.674,0l.049,0a.566.566,0,0,1,.51.34,1,1,0,0,0,.06.1,2.332,2.332,0,0,0,1.874.944A2.168,2.168,0,0,0,8.726.738L8.879.58A.531.531,0,0,1,9.093.453L9.11.447A.593.593,0,0,1,9.292.419a.676.676,0,0,1,.633.45c.423,1.316,1.072,1.6,1.285,1.7.005,0,.518.417.327.878L7.373,12.425A.922.922,0,0,1,6.535,12.913ZM4.988,7.289a.678.678,0,0,1,.637.454l.992,3.22,3.488-7.52a2.378,2.378,0,0,1-.274-.212L9.81,3.213a3.5,3.5,0,0,1-.8-1.028l0,0a4.682,4.682,0,0,1-1.958.538,2.476,2.476,0,0,1-.306-.018A3.622,3.622,0,0,1,5.679,2.4a5.705,5.705,0,0,1-.863-.557Q3.874,3.879,2.929,5.913L1.672,8.622,4.81,7.313A.663.663,0,0,1,4.988,7.289Z" transform="translate(34.957 29.842)" fill="#0e5f9e"/><path d="M6.535,12.913a.88.88,0,0,1-.864-.606L4.6,8.818l-3.37,1.408a.813.813,0,0,1-.27.046,1,1,0,0,1-.808-.454.868.868,0,0,1-.071-.849L4.064.375A.676.676,0,0,1,4.674,0l.049,0a.566.566,0,0,1,.51.34,1,1,0,0,0,.06.1,2.332,2.332,0,0,0,1.874.944A2.168,2.168,0,0,0,8.726.738L8.879.58A.531.531,0,0,1,9.093.453L9.11.447A.593.593,0,0,1,9.292.419a.676.676,0,0,1,.633.45c.423,1.316,1.072,1.6,1.285,1.7.005,0,.518.417.327.878L7.373,12.425A.922.922,0,0,1,6.535,12.913ZM4.988,7.289a.678.678,0,0,1,.637.454l.992,3.22,3.488-7.52a2.378,2.378,0,0,1-.274-.212L9.81,3.213a3.5,3.5,0,0,1-.8-1.028l0,0a4.682,4.682,0,0,1-1.958.538,2.476,2.476,0,0,1-.306-.018A3.622,3.622,0,0,1,5.679,2.4a5.705,5.705,0,0,1-.863-.557Q3.874,3.879,2.929,5.913L1.672,8.622,4.81,7.313A.663.663,0,0,1,4.988,7.289Z" transform="translate(34.957 29.842)" fill="#0e5f9e"/><path d="M10.061,9.007,5.94,7.284l-1.324,4.3a.214.214,0,0,1-.4.028L0,2.517A2.763,2.763,0,0,0,1.441,1.051,3.489,3.489,0,0,0,1.606.558l.033-.14.1.1A2.767,2.767,0,0,0,4.621,1.3,2.993,2.993,0,0,0,6.295,0l4.042,8.715A.216.216,0,0,1,10.061,9.007Z" transform="translate(48.285 30.496)" fill="#fff"/><path d="M5.023,13.014a.819.819,0,0,1-.754-.463l-4.22-9.1c-.174-.42.138-.662.533-.968a2.819,2.819,0,0,0,.791-.814A3.327,3.327,0,0,0,1.644.923C1.72.649,1.776.615,1.86.563L1.911.531a.592.592,0,0,1,.34-.117.919.919,0,0,1,.623.341,2.161,2.161,0,0,0,1.546.617A2.272,2.272,0,0,0,6.38.309.731.731,0,0,1,6.958,0H6.97a.7.7,0,0,1,.549.377L11.564,9.1a.912.912,0,0,1-.8,1.233.829.829,0,0,1-.306-.06L6.985,8.819,5.862,12.468A.882.882,0,0,1,5.023,13.014ZM2.592,2.2A4.546,4.546,0,0,1,1.48,3.445l3.487,7.519L5.975,7.693a.68.68,0,0,1,.618-.4.666.666,0,0,1,.231.042l3.086,1.29L6.767,1.846l0,0A3.634,3.634,0,0,1,4.4,2.713,3.366,3.366,0,0,1,2.592,2.2Z" transform="translate(47.649 29.841)" fill="#0e5f9e"/><path d="M5.023,13.014a.819.819,0,0,1-.754-.463l-4.22-9.1c-.174-.42.138-.662.533-.968a2.819,2.819,0,0,0,.791-.814A3.327,3.327,0,0,0,1.644.923C1.72.649,1.776.615,1.86.563L1.911.531a.592.592,0,0,1,.34-.117.919.919,0,0,1,.623.341,2.161,2.161,0,0,0,1.546.617A2.272,2.272,0,0,0,6.38.309.731.731,0,0,1,6.958,0H6.97a.7.7,0,0,1,.549.377L11.564,9.1a.912.912,0,0,1-.8,1.233.829.829,0,0,1-.306-.06L6.985,8.819,5.862,12.468A.882.882,0,0,1,5.023,13.014ZM2.592,2.2A4.546,4.546,0,0,1,1.48,3.445l3.487,7.519L5.975,7.693a.68.68,0,0,1,.618-.4.666.666,0,0,1,.231.042l3.086,1.29L6.767,1.846l0,0A3.634,3.634,0,0,1,4.4,2.713,3.366,3.366,0,0,1,2.592,2.2Z" transform="translate(47.649 29.841)" fill="#0e5f9e"/><path d="M23.59,15.845l-.143.037.1.1a2.907,2.907,0,0,1-2.793,4.892l-.141-.039.039.138a2.857,2.857,0,0,1-.285,2.3,2.992,2.992,0,0,1-1.674,1.3,2.768,2.768,0,0,1-2.882-.772l-.1-.105-.033.14a3.489,3.489,0,0,1-.165.492,2.762,2.762,0,0,1-1.441,1.467,2.976,2.976,0,0,1-2.379,0,2.8,2.8,0,0,1-1.608-1.957l-.033-.14-.1.105a2.768,2.768,0,0,1-2.882.772,2.985,2.985,0,0,1-1.674-1.3,2.849,2.849,0,0,1-.287-2.3l.039-.138-.139.039a2.908,2.908,0,0,1-2.795-4.892l.1-.1-.141-.037a2.919,2.919,0,0,1,0-5.648l.141-.037-.1-.1A2.908,2.908,0,0,1,5.013,5.166l.139.041-.039-.14A2.887,2.887,0,0,1,9.957,2.241l.1.105.033-.14a2.876,2.876,0,0,1,5.594,0l.033.14.1-.105a2.886,2.886,0,0,1,4.841,2.826l-.039.14.141-.041a2.9,2.9,0,0,1,2.793,4.892l-.1.1.143.037A2.919,2.919,0,0,1,23.59,15.845Z" transform="translate(34.209 7.219)" fill="#3f87bf"/><path d="M13.524,27.339a3.592,3.592,0,0,1-3.184-1.875l0,0a4.3,4.3,0,0,1-1.937.539,2.746,2.746,0,0,1-.384-.026,3.614,3.614,0,0,1-2.21-1.228,3.509,3.509,0,0,1-.879-2.434h0a4.174,4.174,0,0,1-2.134-.643,3.7,3.7,0,0,1-1-4.815.176.176,0,0,0,.039.012c0-.01-.025-.033-.219-.148a3.585,3.585,0,0,1-1.6-3.2,3.437,3.437,0,0,1,1.773-3s.024.031.03.031.01-.011-.118-.24A3.61,3.61,0,0,1,1.86,6.782,3.361,3.361,0,0,1,4.775,5.045l.121,0c0,.014.006.042.011.042a1.042,1.042,0,0,0,.016-.267A3.466,3.466,0,0,1,6.068,2.4,3.753,3.753,0,0,1,8.583,1.368a3.2,3.2,0,0,1,1.731.506s0,0,.005-.01a5.088,5.088,0,0,1,.659-.856A3.561,3.561,0,0,1,13.482,0H13.5a3.566,3.566,0,0,1,3.077,1.864l0,0A4.491,4.491,0,0,1,18.5,1.342c.085,0,.17,0,.251.011a3.641,3.641,0,0,1,2.312,1.183A3.5,3.5,0,0,1,22,5.018h0a4.331,4.331,0,0,1,2.062.609,3.676,3.676,0,0,1,1.475,2.215,3.5,3.5,0,0,1-.4,2.653l0,0a4.351,4.351,0,0,1,1.525,1.648,3.693,3.693,0,0,1-1.515,4.675s-.024-.031-.031-.031a1.082,1.082,0,0,0,.117.24,3.6,3.6,0,0,1-.177,3.533,3.406,3.406,0,0,1-2.912,1.745l-.119,0v0a4.472,4.472,0,0,1-.623,2.107A3.662,3.662,0,0,1,18.4,25.988a3.331,3.331,0,0,1-1.79-.511v0a4.325,4.325,0,0,1-1.782,1.607A3.435,3.435,0,0,1,13.524,27.339ZM10.587,23.7c.369,0,.653.419.73.7a2.335,2.335,0,0,0,2.25,1.6,2.064,2.064,0,0,0,1.306-.446,2.322,2.322,0,0,0,.754-1.208.846.846,0,0,1,.354-.576.513.513,0,0,1,.256-.069,1.473,1.473,0,0,1,.772.389A2.377,2.377,0,0,0,18.4,24.7h.037a2.228,2.228,0,0,0,1.753-.9,2.418,2.418,0,0,0,.389-2.132.789.789,0,0,1,.172-.553.739.739,0,0,1,.575-.215,1.842,1.842,0,0,1,.383.045,2.288,2.288,0,0,0,.456.046,2.107,2.107,0,0,0,1.123-.314,2.321,2.321,0,0,0,1.039-1.714,2.241,2.241,0,0,0-.642-1.855.844.844,0,0,1-.3-.535c-.023-.4.332-.566.781-.775a2.463,2.463,0,0,0,1.263-1,2.336,2.336,0,0,0,.06-2.033,2.212,2.212,0,0,0-1.474-1.28.843.843,0,0,1-.6-.466c-.1-.306.122-.576.357-.861a3.715,3.715,0,0,0,.266-.35,2.187,2.187,0,0,0-.024-2.22A2.2,2.2,0,0,0,22.1,6.369a2.136,2.136,0,0,0-.584.084,1.052,1.052,0,0,1-.317.05.626.626,0,0,1-.429-.146c-.242-.214-.184-.566-.122-.939a3.444,3.444,0,0,0,.06-.527,2.044,2.044,0,0,0-.627-1.45A2.485,2.485,0,0,0,18.36,2.7a2.044,2.044,0,0,0-1.48.628.862.862,0,0,1-.59.325h-.015c-.381-.011-.532-.376-.708-.8a2.659,2.659,0,0,0-.576-.965,2.18,2.18,0,0,0-1.537-.583h-.012A2.256,2.256,0,0,0,11.3,2.993a.855.855,0,0,1-.23.491.463.463,0,0,1-.323.138,1.586,1.586,0,0,1-.768-.37,2.641,2.641,0,0,0-1.445-.6H8.5a2.223,2.223,0,0,0-1.746.895,2.434,2.434,0,0,0-.395,2.142.869.869,0,0,1-.2.578.691.691,0,0,1-.523.2,1.538,1.538,0,0,1-.352-.046,2.3,2.3,0,0,0-.507-.057,2.113,2.113,0,0,0-1.125.314A2.321,2.321,0,0,0,2.609,8.39a2.237,2.237,0,0,0,.64,1.852.866.866,0,0,1,.3.535c.023.4-.331.565-.78.775a2.465,2.465,0,0,0-1.263,1,2.335,2.335,0,0,0-.06,2.031,2.214,2.214,0,0,0,1.475,1.282s.462.173.55.542a.907.907,0,0,1-.322.8A2.169,2.169,0,0,0,3.2,20.251a2.33,2.33,0,0,0,1.677.705,2.5,2.5,0,0,0,.678-.1h.017a.78.78,0,0,1,.594.258.99.99,0,0,1,.108.855,2.216,2.216,0,0,0,2.2,2.7,2.191,2.191,0,0,0,1.579-.653.975.975,0,0,1,.373-.286A.494.494,0,0,1,10.587,23.7Z" transform="translate(33.63 6.564)" fill="#696cff"/><path d="M13.524,27.339a3.592,3.592,0,0,1-3.184-1.875l0,0a4.3,4.3,0,0,1-1.937.539,2.746,2.746,0,0,1-.384-.026,3.614,3.614,0,0,1-2.21-1.228,3.509,3.509,0,0,1-.879-2.434h0a4.174,4.174,0,0,1-2.134-.643,3.7,3.7,0,0,1-1-4.815.176.176,0,0,0,.039.012c0-.01-.025-.033-.219-.148a3.585,3.585,0,0,1-1.6-3.2,3.437,3.437,0,0,1,1.773-3s.024.031.03.031.01-.011-.118-.24A3.61,3.61,0,0,1,1.86,6.782,3.361,3.361,0,0,1,4.775,5.045l.121,0c0,.014.006.042.011.042a1.042,1.042,0,0,0,.016-.267A3.466,3.466,0,0,1,6.068,2.4,3.753,3.753,0,0,1,8.583,1.368a3.2,3.2,0,0,1,1.731.506s0,0,.005-.01a5.088,5.088,0,0,1,.659-.856A3.561,3.561,0,0,1,13.482,0H13.5a3.566,3.566,0,0,1,3.077,1.864l0,0A4.491,4.491,0,0,1,18.5,1.342c.085,0,.17,0,.251.011a3.641,3.641,0,0,1,2.312,1.183A3.5,3.5,0,0,1,22,5.018h0a4.331,4.331,0,0,1,2.062.609,3.676,3.676,0,0,1,1.475,2.215,3.5,3.5,0,0,1-.4,2.653l0,0a4.351,4.351,0,0,1,1.525,1.648,3.693,3.693,0,0,1-1.515,4.675s-.024-.031-.031-.031a1.082,1.082,0,0,0,.117.24,3.6,3.6,0,0,1-.177,3.533,3.406,3.406,0,0,1-2.912,1.745l-.119,0v0a4.472,4.472,0,0,1-.623,2.107A3.662,3.662,0,0,1,18.4,25.988a3.331,3.331,0,0,1-1.79-.511v0a4.325,4.325,0,0,1-1.782,1.607A3.435,3.435,0,0,1,13.524,27.339ZM10.587,23.7c.369,0,.653.419.73.7a2.335,2.335,0,0,0,2.25,1.6,2.064,2.064,0,0,0,1.306-.446,2.322,2.322,0,0,0,.754-1.208.846.846,0,0,1,.354-.576.513.513,0,0,1,.256-.069,1.473,1.473,0,0,1,.772.389A2.377,2.377,0,0,0,18.4,24.7h.037a2.228,2.228,0,0,0,1.753-.9,2.418,2.418,0,0,0,.389-2.132.789.789,0,0,1,.172-.553.739.739,0,0,1,.575-.215,1.842,1.842,0,0,1,.383.045,2.288,2.288,0,0,0,.456.046,2.107,2.107,0,0,0,1.123-.314,2.321,2.321,0,0,0,1.039-1.714,2.241,2.241,0,0,0-.642-1.855.844.844,0,0,1-.3-.535c-.023-.4.332-.566.781-.775a2.463,2.463,0,0,0,1.263-1,2.336,2.336,0,0,0,.06-2.033,2.212,2.212,0,0,0-1.474-1.28.843.843,0,0,1-.6-.466c-.1-.306.122-.576.357-.861a3.715,3.715,0,0,0,.266-.35,2.187,2.187,0,0,0-.024-2.22A2.2,2.2,0,0,0,22.1,6.369a2.136,2.136,0,0,0-.584.084,1.052,1.052,0,0,1-.317.05.626.626,0,0,1-.429-.146c-.242-.214-.184-.566-.122-.939a3.444,3.444,0,0,0,.06-.527,2.044,2.044,0,0,0-.627-1.45A2.485,2.485,0,0,0,18.36,2.7a2.044,2.044,0,0,0-1.48.628.862.862,0,0,1-.59.325h-.015c-.381-.011-.532-.376-.708-.8a2.659,2.659,0,0,0-.576-.965,2.18,2.18,0,0,0-1.537-.583h-.012A2.256,2.256,0,0,0,11.3,2.993a.855.855,0,0,1-.23.491.463.463,0,0,1-.323.138,1.586,1.586,0,0,1-.768-.37,2.641,2.641,0,0,0-1.445-.6H8.5a2.223,2.223,0,0,0-1.746.895,2.434,2.434,0,0,0-.395,2.142.869.869,0,0,1-.2.578.691.691,0,0,1-.523.2,1.538,1.538,0,0,1-.352-.046,2.3,2.3,0,0,0-.507-.057,2.113,2.113,0,0,0-1.125.314A2.321,2.321,0,0,0,2.609,8.39a2.237,2.237,0,0,0,.64,1.852.866.866,0,0,1,.3.535c.023.4-.331.565-.78.775a2.465,2.465,0,0,0-1.263,1,2.335,2.335,0,0,0-.06,2.031,2.214,2.214,0,0,0,1.475,1.282s.462.173.55.542a.907.907,0,0,1-.322.8A2.169,2.169,0,0,0,3.2,20.251a2.33,2.33,0,0,0,1.677.705,2.5,2.5,0,0,0,.678-.1h.017a.78.78,0,0,1,.594.258.99.99,0,0,1,.108.855,2.216,2.216,0,0,0,2.2,2.7,2.191,2.191,0,0,0,1.579-.653.975.975,0,0,1,.373-.286A.494.494,0,0,1,10.587,23.7Z" transform="translate(33.63 6.564)" fill="#0f69af"/><path d="M9.226,3.373a4.808,4.808,0,0,1,.2,1.392A4.74,4.74,0,0,1,4.715,9.53,4.74,4.74,0,0,1,0,4.765,4.74,4.74,0,0,1,4.715,0,4.656,4.656,0,0,1,6.689.436" transform="translate(42.379 15.475)" fill="#fff"/><path d="M5.4,0A4.738,4.738,0,0,1,7.65.518c.588.328.273,1.488-.857,1.055A4.23,4.23,0,0,0,1.3,5.314,4.242,4.242,0,0,0,6.572,9.345a4.226,4.226,0,0,0,2.68-5.128.823.823,0,0,1,.221-.7c.422-.335.981.018,1.142.8a5.607,5.607,0,0,1-3.784,6.319A5.58,5.58,0,0,1,.01,5.768,5.553,5.553,0,0,1,5.225,0Z" transform="translate(41.732 14.819)" fill="#0f69af"/><path d="M-4.137.091c.259-.206.662,0,1.063.057A7.212,7.212,0,0,0-1.822.21,7.3,7.3,0,0,0-.472.029.507.507,0,0,1-.062.186C.283.674-.869.979-1.958,1A8.135,8.135,0,0,1-3.971.773S-4.459.376-4.137.091Z" transform="matrix(0.747, 0.665, -0.665, 0.747, 44.272, 27.015)" fill="#0f69af"/><path d="M-4.137.091c.259-.206.662,0,1.063.057A7.212,7.212,0,0,0-1.822.21,7.3,7.3,0,0,0-.472.029.507.507,0,0,1-.062.186C.283.674-.869.979-1.958,1A8.135,8.135,0,0,1-3.971.773S-4.459.376-4.137.091Z" transform="matrix(0.747, 0.665, -0.665, 0.747, 44.272, 27.015)" fill="#0f69af"/><path d="M-2.843.8A.4.4,0,0,1-2.684.052C-1.91.031-1.136.046-.361.043c.377.007.57.744.015.785A5.874,5.874,0,0,1-2.843.8Z" transform="translate(59.977 6.274) rotate(156.471)" fill="#696cff"/><path d="M0,.509a.406.406,0,0,1-.375.38c-.731.017-1.462,0-2.194,0C-2.95.881-3.15.151-2.587.111c.731-.017,1.462,0,2.194,0A.377.377,0,0,1,0,.509Z" transform="matrix(0.032, -0.999, 0.999, 0.032, 55.525, 0.113)" fill="#696cff"/><path d="M-.049.287a.411.411,0,0,1-.319.6c-.8.021-1.592.008-2.387.012C-3.152.89-3.27.151-2.769.115-1.973.094-1.177.107-.381.1A.4.4,0,0,1-.049.287Z" transform="matrix(0.57, -0.821, 0.821, 0.57, 59.27, 1.352)" fill="#696cff"/><g transform="translate(55 90)"><path d="M12.218,0c.044,0,.43.023.473.027a5.9,5.9,0,0,1,3.246,1.428,5.6,5.6,0,0,1,1.819,4.49V17.409a.473.473,0,0,1-.478.473l-1.457-.008c-1.577-.006-11.878.015-13.6.027L0,17.913c.367-.5.786-1.02,1.262-1.581A26.065,26.065,0,0,0,6.175,7.468c.061-.2.137-.4.214-.607C7.957,2.687,10.21,2.847,11.32,3.191l-.019-.3A21.6,21.6,0,0,0,10.941,0Z" transform="translate(0.921 6.151)" fill="rgba(0,0,0,0.25)" style="mix-blend-mode:overlay;isolation:isolate"/><path d="M12.925,63.558c-.582-9.57-4.56-26.177-4.449-27.849.159-2.361,7.04-5.748,9.735-9.528s2.218-4.253,1.743-7.165-1.1-11.658-3.025-15.981A5.224,5.224,0,0,0,13.945.052a.843.843,0,0,0-1.116.957c.288,1.433.793,3.917,1.261,6.2,0,.008,0,.013.005.021a20.954,20.954,0,0,1,.37,2.844l.018.3c-1.11-.345-3.363-.5-4.931,3.669-.077.2-.153.4-.214.607a26.053,26.053,0,0,1-4.913,8.863C.941,27.619.518,29.682,1.02,34.061A17.188,17.188,0,0,1,1.126,36.7L0,63.558Z" transform="translate(0.681 0.716)" fill="#ff3e1d"/><path d="M12.925,63.558c-.582-9.57-4.56-26.177-4.449-27.849.159-2.361,7.04-5.748,9.735-9.528s2.218-4.253,1.743-7.165-1.1-11.658-3.025-15.981A5.224,5.224,0,0,0,13.945.052a.843.843,0,0,0-1.116.957c.288,1.433.793,3.917,1.261,6.2,0,.008,0,.013.005.021a20.954,20.954,0,0,1,.37,2.844l.018.3c-1.11-.345-3.363-.5-4.931,3.669-.077.2-.153.4-.214.607a26.053,26.053,0,0,1-4.913,8.863C.941,27.619.518,29.682,1.02,34.061A17.188,17.188,0,0,1,1.126,36.7L0,63.558Z" transform="translate(0.681 0.716)" fill="rgba(255,255,255,0.8)"/><path d="M2.422,0C3.039.123,3,1.185,3,2.2c-.022,3.788-1.863,7.32-1.91,10.759a.933.933,0,0,1-.264.621c-.417.3-.883-.165-.817-1.119C.162,10.181,1,8.023,1.42,5.816A18.8,18.8,0,0,0,1.814.793S1.868-.049,2.422,0Z" transform="translate(13.226 9.075)" fill="#ff3e1d"/><path d="M2.422,0C3.039.123,3,1.185,3,2.2c-.022,3.788-1.863,7.32-1.91,10.759a.933.933,0,0,1-.264.621c-.417.3-.883-.165-.817-1.119C.162,10.181,1,8.023,1.42,5.816A18.8,18.8,0,0,0,1.814.793S1.868-.049,2.422,0Z" transform="translate(13.226 9.075)" fill="rgba(255,255,255,0.6)"/><path d="M-1.8.048c.356-.121.719.243,1.244.007.429-.177,1,.567-.015.852C-1.1,1.055-1.852.981-2.028.578A.4.4,0,0,1-1.8.048Z" transform="translate(14.17 13.492) rotate(21.773)" fill="#ff3e1d"/><path d="M-1.8.048c.356-.121.719.243,1.244.007.429-.177,1,.567-.015.852C-1.1,1.055-1.852.981-2.028.578A.4.4,0,0,1-1.8.048Z" transform="translate(14.17 13.492) rotate(21.773)" fill="rgba(255,255,255,0.6)"/><path d="M-.108,1.416c-.317.487-1.012.146-1.605.026a3.521,3.521,0,0,0-2.253.226.842.842,0,0,1-.738-.1c-.457-.423.06-1.145.963-1.383A4.6,4.6,0,0,1-.329.5.637.637,0,0,1-.108,1.416Z" transform="translate(0.443 34.333) rotate(-119.843)" fill="#ff3e1d"/><path d="M-.108,1.416c-.317.487-1.012.146-1.605.026a3.521,3.521,0,0,0-2.253.226.842.842,0,0,1-.738-.1c-.457-.423.06-1.145.963-1.383A4.6,4.6,0,0,1-.329.5.637.637,0,0,1-.108,1.416Z" transform="translate(0.443 34.333) rotate(-119.843)" fill="rgba(255,255,255,0.6)"/><path d="M-.042.627c.2.738-.37.538-.654.43A5.1,5.1,0,0,0-4.08,1.11a.473.473,0,0,1-.357-.054A.41.41,0,0,1-4.25.33,5.808,5.808,0,0,1-.306.36.421.421,0,0,1-.042.627Z" transform="translate(5.042 26.548) rotate(-70.307)" fill="#ff3e1d"/><path d="M-.042.627c.2.738-.37.538-.654.43A5.1,5.1,0,0,0-4.08,1.11a.473.473,0,0,1-.357-.054A.41.41,0,0,1-4.25.33,5.808,5.808,0,0,1-.306.36.421.421,0,0,1-.042.627Z" transform="translate(5.042 26.548) rotate(-70.307)" fill="rgba(255,255,255,0.8)"/><path d="M5.6,50.362,4.856,38.081S2.249,26.269,2.226,24.972a7.522,7.522,0,0,1,.315-3.2c.428-1.14,4.633-3.78,4.633-3.78,3.871-4.564,4.906-6.2,5.491-7.4a4.159,4.159,0,0,0,.247-2.707c-.068-.224-.495-3.154-.495-3.154L11.833,0s0,2.938-.09,5.465c-.007.2-.009.384-.01.565a8.88,8.88,0,0,1-2.724,6.334c-2.24,2.168-7.9,6.919-8.628,8.932-1.418,3.93,1.578,11.281,1.595,15.934.008,2.222.405,13.131.405,13.131Z" transform="translate(7.287 13.264)" fill="rgba(0,0,0,0.25)" style="mix-blend-mode:overlay;isolation:isolate"/></g><g transform="translate(17 90)"><path d="M7.4,63.383c.582-9.544,4.56-26.1,4.449-27.772-.159-2.354-7.04-5.733-9.735-9.5S-.107,21.868.369,18.964,1.471,7.338,3.394,3.026A5.218,5.218,0,0,1,6.376.051a.842.842,0,0,1,1.116.954C7.2,2.434,6.7,4.911,6.231,7.184c0,.008,0,.013-.005.021a20.8,20.8,0,0,0-.37,2.836l-.019.3C6.948,9.993,9.2,9.834,10.769,14c.077.2.153.4.214.605A25.967,25.967,0,0,0,15.9,23.44c3.485,4.1,3.908,6.16,3.406,10.527a17.093,17.093,0,0,0-.106,2.627l1.126,26.789Z" transform="translate(0.723 0.692)" fill="#ff3e1d"/><path d="M7.4,63.383c.582-9.544,4.56-26.1,4.449-27.772-.159-2.354-7.04-5.733-9.735-9.5S-.107,21.868.369,18.964,1.471,7.338,3.394,3.026A5.218,5.218,0,0,1,6.376.051a.842.842,0,0,1,1.116.954C7.2,2.434,6.7,4.911,6.231,7.184c0,.008,0,.013-.005.021a20.8,20.8,0,0,0-.37,2.836l-.019.3C6.948,9.993,9.2,9.834,10.769,14c.077.2.153.4.214.605A25.967,25.967,0,0,0,15.9,23.44c3.485,4.1,3.908,6.16,3.406,10.527a17.093,17.093,0,0,0-.106,2.627l1.126,26.789Z" transform="translate(0.723 0.692)" fill="rgba(255,255,255,0.8)"/><path d="M.423,0C.629.034.784.352.774.715a32.9,32.9,0,0,0,.68,7.619A26.718,26.718,0,0,1,2,12.947a1.231,1.231,0,0,1-.125.529c-.242.379-.6-.006-.621-.773A53.542,53.542,0,0,0,.4,6.716,30.759,30.759,0,0,1,.032.671S.105,0,.423,0Z" transform="translate(4.667 11.342) rotate(-11)" fill="#ff3e1d"/><path d="M.423,0C.629.034.784.352.774.715a32.9,32.9,0,0,0,.68,7.619A26.718,26.718,0,0,1,2,12.947a1.231,1.231,0,0,1-.125.529c-.242.379-.6-.006-.621-.773A53.542,53.542,0,0,0,.4,6.716,30.759,30.759,0,0,1,.032.671S.105,0,.423,0Z" transform="translate(4.667 11.342) rotate(-11)" fill="rgba(255,255,255,0.6)"/><path d="M-1.795.947c-.57-.261.535-1.4,1.64-.685.332.216.113.874-.506.628C-1.066.739-1.516,1.063-1.795.947Z" transform="translate(7.954 14.357) rotate(158.227)" fill="#ff3e1d"/><path d="M-1.795.947c-.57-.261.535-1.4,1.64-.685.332.216.113.874-.506.628C-1.066.739-1.516,1.063-1.795.947Z" transform="translate(7.954 14.357) rotate(158.227)" fill="rgba(255,255,255,0.6)"/><path d="M-.056.358c.326.7-.819,1.157-1.96,1.293a4.8,4.8,0,0,1-2.8-.434A.809.809,0,0,1-5.152.786a.678.678,0,0,1,1-.7A4.211,4.211,0,0,0-.883.032.7.7,0,0,1-.056.358Z" transform="translate(19.837 33.097) rotate(-61.372)" fill="#ff3e1d"/><path d="M-.056.358c.326.7-.819,1.157-1.96,1.293a4.8,4.8,0,0,1-2.8-.434A.809.809,0,0,1-5.152.786a.678.678,0,0,1,1-.7A4.211,4.211,0,0,0-.883.032.7.7,0,0,1-.056.358Z" transform="translate(19.837 33.097) rotate(-61.372)" fill="rgba(255,255,255,0.6)"/><path d="M-.03.524C-.176.834-.645.9-1.044.987A6.048,6.048,0,0,1-4.3.752S-4.564.616-4.563.378c0-.588,1.1-.135,1.971-.069A4.5,4.5,0,0,0-.538,0S.15.078-.03.524Z" transform="translate(15.65 26.851) rotate(-109.693)" fill="#ff3e1d"/><path d="M-.03.524C-.176.834-.645.9-1.044.987A6.048,6.048,0,0,1-4.3.752S-4.564.616-4.563.378c0-.588,1.1-.135,1.971-.069A4.5,4.5,0,0,0-.538,0S.15.078-.03.524Z" transform="translate(15.65 26.851) rotate(-109.693)" fill="rgba(255,255,255,0.8)"/><path d="M-1.083.567S-.7.629,0,0L-1.065,26.087l-2.96-.246Z" transform="matrix(0.997, -0.083, 0.083, 0.997, 19.263, 37.364)" fill="rgba(0,0,0,0.25)" style="mix-blend-mode:overlay;isolation:isolate"/></g></g></g></svg>