<svg xmlns="http://www.w3.org/2000/svg" xmlns:xlink="http://www.w3.org/1999/xlink" width="362" height="70.312" viewBox="0 0 362 70.312"><defs><clipPath id="a"><rect width="118.811" height="34.554" fill="none"/></clipPath><clipPath id="b"><rect width="60" height="60.001" fill="none"/></clipPath><clipPath id="d"><rect width="39.233" height="39.233" fill="none"/></clipPath><clipPath id="e"><path d="M24.528,44.146A19.616,19.616,0,1,0,44.144,24.529,19.617,19.617,0,0,0,24.528,44.146" transform="translate(-24.528 -24.529)" fill="none"/></clipPath></defs><g transform="translate(-115 -24)"><g transform="translate(0 -26)"><g transform="translate(0 26)"><rect width="362" height="70" transform="translate(115 24)" fill="#fff" opacity="0"/><g transform="translate(1 -3.064)" opacity="0.48"><path d="M69.18,0,81.787,34.554H100L87.4,0Z" transform="translate(131.194 32.669)" fill="#86c9cf"/><g transform="translate(178.467 32.669)"><g clip-path="url(#a)"><path d="M264.089,34.554s-1.18-5.725,4.329-16.936A48.551,48.551,0,0,0,273.039,0H254.824s1.412,4.775-5.978,20.223c-4.217,8.814-2.972,14.33-2.972,14.33Z" transform="translate(-167.897 0)" fill="#86c9cf"/><path d="M297.817,34.554s1.18-5.725-4.329-16.936A48.552,48.552,0,0,1,288.867,0h18.215s-1.412,4.775,5.978,20.223c4.217,8.814,2.972,14.33,2.972,14.33Z" transform="translate(-197.392 0)" fill="#dddddc"/><path d="M295.7,22.712c.58-1.549,1.305-3.247,2.213-5.095A48.558,48.558,0,0,0,302.536,0H288.867a48.552,48.552,0,0,0,4.621,17.617c.908,1.848,1.633,3.546,2.213,5.095" transform="translate(-197.392 0)" fill="#ffb900"/><path d="M117.234,0s1.314,4.4-2.787,12.125c-8.633,16.252-6.163,22.429-6.163,22.429H126.5s-1.051-7.864,5.978-20.223C137.3,5.842,135.45,0,135.45,0Z" transform="translate(-73.77 0)" fill="#86c9cf"/><path d="M60.192,0,47.585,34.553H29.37L41.977,0Z" transform="translate(-20.069 0)" fill="#dddddc"/><path d="M18.566,0s-1.314,4.4,2.787,12.125c8.633,16.252,6.163,22.429,6.163,22.429H9.3S10.351,26.69,3.322,14.33C-1.5,5.842.35,0,.35,0Z" transform="translate(0 0)" fill="#ffb900"/><path d="M41.422,27.484a29.132,29.132,0,0,1-2.085-4.891l-9.968,27.32H47.585l.012-.032c.17-.486,2.109-6.8-6.175-22.4" transform="translate(-20.069 -15.36)" fill="#e85620"/><path d="M199.36,0H181.5V34.554H199.36a17.183,17.183,0,0,0,17.089-17.277A17.183,17.183,0,0,0,199.36,0" transform="translate(-124.024 0)" fill="#dddddc"/></g></g></g><g transform="translate(-3 -5.094)"><g transform="translate(198.18 19.935)"><g transform="translate(245.73 51.5)"><path d="M45.98,52.407a14.1,14.1,0,0,0,1.447.06,13.953,13.953,0,0,0,12.6-7.955L53.092,25.766A13.923,13.923,0,0,0,37.3,28.87Z" transform="translate(-33.351 -24.498)" fill="#86c9cf"/><path d="M69.223,58.236A13.954,13.954,0,0,0,77.149,32.8a22.724,22.724,0,0,1-2.622,7.474C69.585,49.5,68.56,55.192,68.5,58.206l.723.03" transform="translate(-55.148 -30.266)" fill="#86c9cf"/><path d="M69.223,65.152A13.953,13.953,0,0,0,81.82,57.2L76.456,42.7a26.49,26.49,0,0,1-1.929,4.521C69.555,56.382,68.56,62.078,68.5,65.092l.723.03" transform="translate(-55.148 -37.183)" fill="#59b5ad"/><path d="M42.4,25.058a13.954,13.954,0,0,0-9.644,26.159Z" transform="translate(-24.196 -24.392)" fill="#dddddc"/><path d="M25.864,55.574a5.792,5.792,0,0,1-.422-.874A13.923,13.923,0,0,0,31.77,71.788c-.392-3.255-1.778-8.5-5.907-16.214" transform="translate(-24.446 -45.566)" fill="#e85620"/></g><rect width="20.948" height="20.948" rx="10.474" transform="translate(249.115 54.991)" fill="#fff"/></g><circle cx="18.5" cy="18.5" r="18.5" transform="translate(432 58.094)" fill="#fff"/><path d="M4.549-19.524H5.642a14.9,14.9,0,0,1-.1,1.855,6.966,6.966,0,0,0,1.611-1.05l.69.877a11.023,11.023,0,0,1-2.158,1.223,14.329,14.329,0,0,1,2.1,1.582l-.764.935a15.31,15.31,0,0,0-2.1-1.741,5.545,5.545,0,0,1-2.215,1.8L1.96-14.85a4.749,4.749,0,0,0,1.969-1.481A5.569,5.569,0,0,0,4.549-19.524Zm6.213,0h1.093a14.552,14.552,0,0,1-.1,1.841,6.459,6.459,0,0,0,1.726-1.151l.69.877a11.123,11.123,0,0,1-2.359,1.366,14.27,14.27,0,0,1,2.243,1.625l-.748.92A15.176,15.176,0,0,0,11.078-15.8a5.528,5.528,0,0,1-2.157,1.7l-.748-.806a4.646,4.646,0,0,0,1.971-1.467,5.438,5.438,0,0,0,.619-3.151Zm3.752,5.58v2.776H13.308v-1.668H2.9v1.553H1.687v-2.661ZM3.068-11.283h3.74a10.012,10.012,0,0,0,.216-1.338l1.208.187q-.072.6-.172,1.151h4.9q-.072,3.524-.706,4.4a1.725,1.725,0,0,1-1.423.6,18.282,18.282,0,0,1-2.243-.187l-.3-1.207a21.575,21.575,0,0,0,2.546.187.516.516,0,0,0,.489-.345,9.641,9.641,0,0,0,.259-2.43h-3.8A6.449,6.449,0,0,1,6.592-8.09,7.516,7.516,0,0,1,2.766-6.048L2.263-7.2A6.691,6.691,0,0,0,5.686-8.967a3.921,3.921,0,0,0,.806-1.294H3.068Zm-.417-7.436a8.627,8.627,0,0,1,1.093,1.841l-.906.518A8.441,8.441,0,0,0,1.8-18.144Zm6.156-.059a9.115,9.115,0,0,1,1.107,1.841l-.92.518A8.441,8.441,0,0,0,7.958-18.2Zm16.054-.446.676.906q-1.411.144-2.992.245v1.021h3.166v.993H22.547v.806H25.38v4.528H22.547v.935h2.776v.906H22.547V-8q1.625-.086,2.949-.172l.075.618A9.291,9.291,0,0,0,26.7-10.1a22.118,22.118,0,0,0,.619-5.379H25.9v-1.1h1.436v-2.891h1.153v2.891h2.747a74.1,74.1,0,0,1-.417,8.932,1.809,1.809,0,0,1-.529,1.107,1.6,1.6,0,0,1-1.064.374,7.565,7.565,0,0,1-1.484-.175L27.622-7.6a7.287,7.287,0,0,0,1.6.23.373.373,0,0,0,.345-.273,2.994,2.994,0,0,0,.216-1.093q.23-3.136.259-6.745H28.472a23.063,23.063,0,0,1-.764,6.1A8.364,8.364,0,0,1,25.9-6.108l-.82-.806a2.826,2.826,0,0,0,.3-.388q-3.133.376-6.959.621l-.187-1.151q1.726-.059,3.234-.129v-.92H18.649v-.906h2.819v-.935H18.649V-15.25h2.819v-.806H18.175v-.993h3.293v-.935q-1.223.086-2.546.144l-.446-.877q3.193-.16,6.388-.505Zm-5.119,7.538h1.726v-.877H19.743Zm2.8-.877v.877h1.726v-.877Zm-2.8-.849h1.726v-.865H19.743Zm2.8-.865v.863h1.726v-.863Zm16.1-5.192a6.835,6.835,0,0,1,.619,1.51H42.17v1.079H40.545l1.05.359a14.255,14.255,0,0,1-.529,1.553q-.172.446-.345.806h1.61v1.151H34.907v-1.148H36.82a14.741,14.741,0,0,0-.863-2.359l.764-.359H35.139v-1.079h2.79a5.485,5.485,0,0,0-.432-1.151Zm-.6,5.31h1.395a10.292,10.292,0,0,0,.432-1.064,11.689,11.689,0,0,0,.5-1.654H37.049a18.825,18.825,0,0,1,.993,2.719Zm3.437,2.3v5.393H40.331v-.792h-3.47v.919H35.712v-5.521ZM36.861-8.363h3.47V-10.78h-3.47ZM48.27-18.833l-1.857,5.019a7.052,7.052,0,0,1,1.28,1.668,4.146,4.146,0,0,1,.517,1.882q-.029,2.318-2.085,2.318a8.565,8.565,0,0,1-1.208-.118l-.273-1.381a4.917,4.917,0,0,0,1.481.288q.849,0,.877-1.107a3.247,3.247,0,0,0-.4-1.5,5.356,5.356,0,0,0-1.438-1.769l1.411-4.156h-2.4V-6.22H42.961V-18.833Zm6.65-.69h1.093a14.9,14.9,0,0,1-.1,1.855,6.966,6.966,0,0,0,1.611-1.05l.69.877a11.023,11.023,0,0,1-2.158,1.223,14.328,14.328,0,0,1,2.1,1.582l-.764.935a15.31,15.31,0,0,0-2.1-1.74,5.545,5.545,0,0,1-2.215,1.8l-.749-.806A4.749,4.749,0,0,0,54.3-16.331a5.569,5.569,0,0,0,.62-3.193Zm6.213,0h1.093a14.551,14.551,0,0,1-.1,1.841,6.459,6.459,0,0,0,1.726-1.151l.69.877a11.122,11.122,0,0,1-2.359,1.366,14.27,14.27,0,0,1,2.243,1.625l-.749.92A15.176,15.176,0,0,0,61.448-15.8a5.528,5.528,0,0,1-2.158,1.7l-.748-.806a4.646,4.646,0,0,0,1.971-1.467,5.442,5.442,0,0,0,.618-3.151Zm3.754,5.58v2.776H63.677v-1.668H53.264v1.553H52.056v-2.661Zm-11.45,2.66h3.74a10.012,10.012,0,0,0,.216-1.338l1.208.187q-.072.6-.172,1.151h4.9q-.072,3.524-.706,4.4a1.725,1.725,0,0,1-1.423.6,18.282,18.282,0,0,1-2.243-.187l-.3-1.207a21.575,21.575,0,0,0,2.546.187.516.516,0,0,0,.489-.345,9.641,9.641,0,0,0,.259-2.43h-3.8A6.449,6.449,0,0,1,56.96-8.09a7.516,7.516,0,0,1-3.826,2.042l-.5-1.151a6.691,6.691,0,0,0,3.423-1.769,3.921,3.921,0,0,0,.806-1.294H53.437Zm-.417-7.436a8.627,8.627,0,0,1,1.093,1.841l-.906.518a8.441,8.441,0,0,0-1.036-1.784Zm6.156-.059a9.116,9.116,0,0,1,1.107,1.841l-.92.518A8.442,8.442,0,0,0,58.326-18.2Zm16.054-.446.676.906q-1.411.144-2.992.245v1.021h3.164v.993H72.916v.806h2.833v4.528H72.916v.935h2.776v.906H72.916V-8q1.625-.086,2.949-.172l.072.619A9.292,9.292,0,0,0,77.072-10.1a22.119,22.119,0,0,0,.619-5.379H76.267v-1.1h1.438v-2.891h1.151v2.891H81.6a74.109,74.109,0,0,1-.418,8.932,1.809,1.809,0,0,1-.529,1.107,1.6,1.6,0,0,1-1.064.374,7.565,7.565,0,0,1-1.481-.172L77.993-7.6a7.287,7.287,0,0,0,1.6.23.373.373,0,0,0,.345-.273,2.994,2.994,0,0,0,.216-1.093q.23-3.136.259-6.745H78.841a23.063,23.063,0,0,1-.764,6.1,8.364,8.364,0,0,1-1.812,3.279l-.82-.806a2.826,2.826,0,0,0,.3-.388q-3.131.373-6.959.619L68.6-7.831q1.726-.059,3.234-.129v-.92H69.016v-.906h2.819v-.935H69.016V-15.25h2.819v-.806H68.542v-.993h3.293v-.935q-1.223.086-2.546.144l-.446-.877q3.195-.16,6.388-.505Zm-5.119,7.538h1.726v-.877H70.111Zm2.8-.877v.877h1.726v-.877Zm-2.8-.849h1.726v-.865H70.111Zm2.805-.865v.863h1.726v-.863Zm13.349-2.2H90.9q.072-1.235.072-2.689h1.266q0,1.453-.072,2.689H97.6a53.963,53.963,0,0,1-.345,8.057,2.545,2.545,0,0,1-.764,1.582,2.79,2.79,0,0,1-1.539.374,19.466,19.466,0,0,1-2.471-.158L92.179-8a18.716,18.716,0,0,0,2.776.216.915.915,0,0,0,.777-.273,3.337,3.337,0,0,0,.3-1.309q.187-1.956.187-5.84H92.081q-.33,3.826-1.381,5.336a11.485,11.485,0,0,1-4.1,3.711l-.7-1.093a10.51,10.51,0,0,0,3.7-3.394A10.573,10.573,0,0,0,90.8-15.21H86.268ZM111.629-14.1H110.09a3.227,3.227,0,0,1-.518,1.755,2.521,2.521,0,0,1-1.353.935l-.518-1.021a2.161,2.161,0,0,0,.978-.662,4.411,4.411,0,0,0,.345-2.117H112.1a8.093,8.093,0,0,1-1.079-.806,7.377,7.377,0,0,1-2.172-3.207l1.05-.3a4.845,4.845,0,0,0,.761,1.485,7.892,7.892,0,0,0,1.827-1.481l.733.877a10.357,10.357,0,0,1-1.841,1.395q.273.259.575.5a1.567,1.567,0,0,1,.129.118,7.87,7.87,0,0,0,1.956-1.682l.75.859a11.008,11.008,0,0,1-1.711,1.467,12.672,12.672,0,0,0,2.459,1.021l-.863.964a10.66,10.66,0,0,1-1.9-.806v1.395q0,.4.345.4h1.553v1.021H112.9q-1.266,0-1.266-1.021Zm-7.723,1.323h2.43V-14h-2.129v-.1a9.509,9.509,0,0,1-1.668.575l-.575-1.107a8.821,8.821,0,0,0,2.445-.877,11.433,11.433,0,0,0-1.467-1.366l.748-.806a10.266,10.266,0,0,1,1.755,1.481,5.955,5.955,0,0,0,1.481-1.812h-3.754v-1.093h5.106v.791a7.468,7.468,0,0,1-2.143,3.006q-.187.144-.359.273h1.711v3.293h-2.905l-.288,1.093h3.352q-.375,3.135-.981,3.782a1.754,1.754,0,0,1-1.381.529h-1.424l-.118-1.151a13.979,13.979,0,0,0,1.539.118.643.643,0,0,0,.58-.319,4.7,4.7,0,0,0,.518-1.941h-3.51l.82-3.15Zm4.9,2.632h-.633v-1.081h5.681v.748a5.478,5.478,0,0,1-.949,1.8,2.834,2.834,0,0,1-.288.3q1.036.588,2,1.223l-.821.994q-1.036-.748-2.117-1.395-.345.216-.706.417A8.567,8.567,0,0,1,108-6.22l-.3-1.093a7.008,7.008,0,0,0,2.5-.706,2.514,2.514,0,0,0,.359-.187q-1.208-.676-2.445-1.235Zm2.764,1.194q.118-.129.23-.245a4.251,4.251,0,0,0,.662-.949H109q1.335.559,2.572,1.191Zm18.285-9h-8.527v1.079h8.527Zm-8.527,2.172v1.453h2.529v-1.151h1.151v1.151H127.6v-1.151h1.151v1.151h2.474v1.077h-2.474v1.568h3.107v1.093h-8.214v3.149q1.294-.316,2.689-.806l.187,1.05a22.853,22.853,0,0,1-3.754,1.093l-.5-1.05a.425.425,0,0,0,.23-.331v-3.106h-1.309q-.072.662-.187,1.294a15.836,15.836,0,0,1-.935,3.078l-1.151-.633a20.421,20.421,0,0,0,.964-3.293,24.177,24.177,0,0,0,.245-3.424v-5.48h10.888v3.265Zm-.043,4.1h2.575v-1.57h-2.529v.059q-.008.761-.051,1.509Zm3.725,0H127.6v-1.57h-2.588ZM129.8-10.3l.748.863a10.351,10.351,0,0,1-1.673,1.091,5.6,5.6,0,0,0,.935.4,9.721,9.721,0,0,0,2.287.575l-.518,1.151a12.836,12.836,0,0,1-2.488-.764,5.777,5.777,0,0,1-1.784-1.079A5.483,5.483,0,0,1,126-9.961l1.021-.345a4.874,4.874,0,0,0,.892,1.266A8.111,8.111,0,0,0,129.8-10.3Zm6.65-8.687H148.2v3.107H136.449Zm1.144,2.185h2.474v-1.28H137.6Zm3.567-1.28v1.28h2.373v-1.28Zm3.466,0v1.28h2.416v-1.28Zm-8,3.179h4.493v-.706h1.208v.706h3.107v.791q1.28-.561,2.416-1.194l.69.733a25.959,25.959,0,0,1-2.575,1.323h2.974v.935h-5.279q-.345.129-.719.245-1.036.359-2.129.662h6.674V-6.22h-1.208v-.633h-7.174v.633H137.9v-4.4q-.935.216-1.9.417l-.46-.964q2.618-.518,4.861-1.151h-4.7v-.934h5.422V-14h-4.488Zm2.474,7.174h7.174v-.9h-7.174Zm0-1.784h7.174v-.961h-7.174Zm4.128-3.74q1.007-.345,1.927-.748h-2.83v.75Z" transform="translate(311.773 61.525)" fill="#0f69af"/><path d="M41.17,25.885l.13-.127a13.12,13.12,0,0,0,1.18-1.339,70.724,70.724,0,0,1-8.723,2.818l-.2.052-.894-2.613.247-.051c1.359-.283,2.663-.58,3.879-.88V15.552H33.24V12.928h3.549V10.421H34.284V9.187l-.142.142-1.825-2,.155-.151a16.292,16.292,0,0,0,2.649-3.235l0-.005A16.892,16.892,0,0,0,36.92.312l.066-.188,2.7.6-.078.235c-.082.243-.17.482-.265.715a28.213,28.213,0,0,1,3.2,2.609V1.98h6.863l-.1.3a47.681,47.681,0,0,1-3.255,7.458h3.274l-.007.231a36.1,36.1,0,0,1-2.093,11.571,10.727,10.727,0,0,0,.849,1.193c.819.952,2.408,1.547,4.734,1.779V21.4H48.361V18.923h4.444V17.072H49.317V14.627h3.489v-1.7H49.823v-2.5h2.982V8.871H48.361V6.276h4.444V4.546H49.823V2.1h2.982V.161H55.52V2.1h3.938V6.276H60.65V8.871H59.458v4.055H55.52v1.7h3.938v2.445H55.52v1.851h4.5V21.4h-4.5v3.22c1.729-.012,3.6-.091,5.577-.236l.318-.023L60.6,27.244H55.057c-4.157-.041-7.019-.854-8.509-2.421a8.365,8.365,0,0,1-.611-.632,18.144,18.144,0,0,1-3.011,3.943l-.2.194Zm.286.032,1.313,2.058A17.93,17.93,0,0,0,45.9,23.8a8.548,8.548,0,0,0,.806.865q2.178,2.3,8.351,2.357h5.369l.687-2.416-.687,2.416H55.057q-6.173-.061-8.351-2.357A8.548,8.548,0,0,1,45.9,23.8a17.93,17.93,0,0,1-3.132,4.176l-1.312-2.058Zm-7.753,1.1a69.864,69.864,0,0,0,8.828-2.864A69.71,69.71,0,0,1,33.7,27.02Zm-.747-2.178ZM53.029,24.4H55.3V21.174h4.5v0H55.3V24.4ZM42.74,24.07a17.807,17.807,0,0,0,1.574-2.664,25.219,25.219,0,0,1-1.308-4.48l-.019.087c-.416,2.064-.819,3.8-1.2,5.146l-.021.076.295-.107.242-.091Zm-3.462-.808V15.328h3.49v0h-3.49Zm.225-.3c.695-.2,1.375-.417,2.031-.648l-1.895-.506.048-.211c.394-1.715.7-3.433.922-5.108l.03-.245,2.337.54c-.078-.384-.15-.779-.22-1.184l-.009-.052H39.5Zm.4-1.314,1.67.447q.567-2.028,1.193-5.131-.625,3.1-1.193,5.131l-1.67-.447Zm7.07-.09a35.585,35.585,0,0,0,2.118-11.6A35.585,35.585,0,0,1,46.975,21.562Zm-4-6a27.227,27.227,0,0,0,1.581,5.845A27.227,27.227,0,0,1,42.978,15.567Zm5.606,5.607h0ZM55.3,19.146v-2.3h3.938v0H55.3Zm-10.16-4.483c.181,1.033.384,1.983.61,2.838a45.238,45.238,0,0,0,.944-5.321H43.27l-.409-2.146.047-.075A31.184,31.184,0,0,0,45.58,4.426H42.691q.478.459.926.936l.133.142L41.916,7.8h.092v2.624H39.5v2.507h3.489v2.388l2.1-.935Zm4.4,2.186h0ZM33.463,15.328h0ZM55.3,14.851V12.7h3.938V8.647h1.192v0H59.234V12.7H55.3Zm-16.018-1.7V10.2h2.507v0H39.278ZM50.046,12.7h0ZM43.1,10.079l.358,1.879h0L43.1,10.079Zm12.2.566v-2h0Zm.224-.223h1.343V8.871H55.52ZM34.507,10.2h0Zm11.156-.239A45.652,45.652,0,0,0,49.093,2.2,45.652,45.652,0,0,1,45.663,9.959ZM32.628,7.334,34.149,9c.119-.119.239-.229.358-.328-.119.1-.239.208-.358.328l-1.521-1.67ZM48.584,8.647h0ZM37.191,5.4A16.964,16.964,0,0,1,35.163,8.02,16.964,16.964,0,0,0,37.191,5.4a13.944,13.944,0,0,0,.985-1.67A30.025,30.025,0,0,1,41.9,7.454l1.551-1.939L41.9,7.454a30.025,30.025,0,0,0-3.728-3.728A13.944,13.944,0,0,1,37.191,5.4Zm.187.123A17.682,17.682,0,0,1,35.672,7.8H41.9l-.168-.2a30.154,30.154,0,0,0-3.486-3.521A13.905,13.905,0,0,1,37.378,5.519Zm21.855.98v0ZM55.3,6.5V4.321h0Zm.224-.223h1.343V4.546H55.52ZM50.046,4.321h0ZM42.769,4.2h0ZM55.3,2.324v0ZM39.07,1.757q.18-.419.329-.866Q39.25,1.338,39.07,1.757Zm95.557,23.874.2-.116a21.671,21.671,0,0,0,7.588-6.967c1.186-1.816,2-4.88,2.418-9.11h-9.374V6.366h9.616c.091-1.642.138-3.442.138-5.354V.788h3.07v.224c0,1.911-.045,3.711-.135,5.354h11.261v.223c0,8.863-.244,14.5-.722,16.75a5.486,5.486,0,0,1-1.663,3.412l-.014.009a6.029,6.029,0,0,1-3.313.813,40.713,40.713,0,0,1-5.158-.33l-.158-.02-.728-3.334.32.048a38.743,38.743,0,0,0,5.723.444,1.722,1.722,0,0,0,1.428-.471,6.5,6.5,0,0,0,.587-2.608c.252-2.647.383-6.637.386-11.864h-8.162c-.466,5.194-1.435,8.883-2.882,10.966a24.168,24.168,0,0,1-8.577,7.766l-.186.105Zm.313.078,1.432,2.266q.614-.349,1.194-.714-.581.365-1.194.714l-1.432-2.266Zm13.631,1.312a40.388,40.388,0,0,0,5.13.329,5.789,5.789,0,0,0,3.192-.776,5.282,5.282,0,0,0,1.581-3.28q.716-3.371.717-16.7,0,13.332-.717,16.7a5.282,5.282,0,0,1-1.581,3.28,5.789,5.789,0,0,1-3.192.776,40.388,40.388,0,0,1-5.13-.329l-.626-2.864Zm-1.03-15.9q.11-.917.2-1.909h0Q147.651,10.205,147.541,11.122ZM135.686,9.213h0Zm12.23-2.625q.148-2.565.148-5.577Q148.064,4.024,147.916,6.589ZM69.759,27.956l-.153-.032-.441-2.853a15.91,15.91,0,0,1-1,1.6l-.151.211L65.94,24.878l.095-.154A30.889,30.889,0,0,0,69.2,17.766l.082-.255L71.714,18.8l-.056.178a34.533,34.533,0,0,1-2.424,5.972l.243.069a8.945,8.945,0,0,0,2.445.349c.229,0,.279-.085.3-.128a3.192,3.192,0,0,0,.1-.96V16.864H67.762V8.3H79.423v8.56H75.159v7.978a4.058,4.058,0,0,1-.559,2.529,2.8,2.8,0,0,1-2.29.827A12.8,12.8,0,0,1,69.759,27.956Zm.045-.219a12.442,12.442,0,0,0,2.5.238,2.577,2.577,0,0,0,2.118-.746,3.912,3.912,0,0,0,.506-2.386v-8.2H79.2v0H74.934v8.2a3.912,3.912,0,0,1-.506,2.386,2.577,2.577,0,0,1-2.118.746,12.442,12.442,0,0,1-2.5-.238l-.388-2.505Zm-3.58-2.894,1.76,1.7a27.71,27.71,0,0,0,3.46-7.637,27.71,27.71,0,0,1-3.46,7.637l-1.76-1.7Zm1.76-8.2h0Zm2.386-2.178V10.646h0Zm.223-.223h6V10.869h-6Zm6.917,11.412.146-.117a14.457,14.457,0,0,0,3.73-4.613,21.576,21.576,0,0,0,2.1-6.261A38.347,38.347,0,0,0,84,9.944H80.08V7.23h4.062c.056-2.006.084-4.307.084-6.845V.161h2.864V.385c0,2.519-.038,4.819-.111,6.845H93.86V9.944H86.837c-.118,2-.286,3.707-.5,5.09l0,.006A24.232,24.232,0,0,1,83.6,23.019a18.075,18.075,0,0,1-4.472,5.016l-.206.155Zm.286.057,1.193,2.147A17.768,17.768,0,0,0,83.405,22.9,23.872,23.872,0,0,0,86.119,15q.329-2.148.508-5.279h7.01v0h-7.01q-.181,3.131-.508,5.279a23.872,23.872,0,0,1-2.714,7.9,17.768,17.768,0,0,1-4.415,4.952L77.8,25.708ZM80.3,9.721h0Zm6.442-2.267q.119-3.131.118-7.068Q86.864,4.321,86.746,7.454ZM4.039,25.723l.311-.03a9.021,9.021,0,0,0,4.27-1.149l.015-.009a2.253,2.253,0,0,0,.574-.513H4.653V19.594l-.143.014-.188.017-.539-2.012.14-.087C4.741,17.01,5.539,16.465,6.3,15.9c-.7.088-1.415.16-2.124.216l-.208.017-.29-1.992.123-.077a17.459,17.459,0,0,0,4.123-3.443l.091-.11,2.412.64-.261.274a20.777,20.777,0,0,1-2.6,2.354c.529-.051,1.1-.112,1.691-.187.532-.457,1.042-.93,1.518-1.406l.111-.112,2.15,1.02-.255.223c-.963.85-1.909,1.625-2.83,2.318l1.585-.449.09.138a13.128,13.128,0,0,1,1.577,3.4l.065.214-1.129.348V22.1a4.953,4.953,0,0,1-1.662,4.11,10.258,10.258,0,0,1-5.212,1.868L5.1,28.1Zm.331.193.864,1.939a10,10,0,0,0,5.1-1.82A4.719,4.719,0,0,0,11.916,22.1v0a4.719,4.719,0,0,1-1.581,3.937,10,10,0,0,1-5.1,1.82L4.37,25.917ZM4.876,23.8h0Zm2-1.82v0ZM5.627,19.49H7.1v2.266H9.784V19.25H11.2c-.075-.262-.162-.528-.259-.791A38.533,38.533,0,0,1,5.627,19.49ZM4.042,17.714l.447,1.67a37.944,37.944,0,0,0,6.591-1.192q.209.535.358,1.073l1.552-.477-1.552.477q-.15-.538-.358-1.073A37.944,37.944,0,0,1,4.49,19.384l-.447-1.67Zm2.893-.3a39.721,39.721,0,0,0,5.7-4.265A39.721,39.721,0,0,1,6.935,17.416Zm1.009-.368c.732-.109,1.463-.229,2.185-.36-.135-.221-.286-.44-.449-.659l-.092-.123Q8.752,16.523,7.944,17.048ZM9.857,15.9a8.773,8.773,0,0,1,.626.954A8.773,8.773,0,0,0,9.857,15.9ZM3.922,14.254,4.161,15.9q1.491-.119,2.953-.328-1.463.208-2.953.328l-.239-1.641Zm2.833-.179a18.766,18.766,0,0,0,3.251-2.8A18.766,18.766,0,0,1,6.756,14.076Zm198.644,14V16.71a28.672,28.672,0,0,1-3.54,5.648l-.176.221-1.837-2.367.121-.139a27.7,27.7,0,0,0,3.164-4.793,27.472,27.472,0,0,0,2.028-4.412h-4.441V8.036H205.4V4.37c-1.074.146-2.2.285-3.36.413l-.151.018L200.466,2.13,200.8,2.1c3.359-.3,6.765-.737,10.123-1.31l.134-.023,1.722,2.261-.336.079c-1.293.305-2.669.585-4.092.835V8.036H212.5v2.833h-4.146v1.354a41.692,41.692,0,0,1,3.892,4.4l.1.132L210.5,19.31l-.175-.285c-.655-1.063-1.316-2.056-1.972-2.959V28.079Zm.225-.223h2.5V15.388q1.192,1.581,2.385,3.519l1.551-2.147-1.551,2.147q-1.192-1.937-2.385-3.519V27.855Zm-5.489-7.636,1.551,2a28.678,28.678,0,0,0,3.938-6.532,28.678,28.678,0,0,1-3.938,6.532l-1.551-2Zm7.994-7.9v-1.67h4.145v0H208.13Zm-7.188-1.67h0Zm7.188-6.891v0q2.237-.387,4.265-.864Q210.366,3.367,208.13,3.755Zm-7.307-1.431,1.191,2.236q1.88-.208,3.611-.448-1.732.239-3.611.448l-1.191-2.236ZM184.9,28.079V20.23a21.241,21.241,0,0,1-1.6,2.278l-.011.012a20.089,20.089,0,0,1-4.5,3.831l-.193.108L177.262,24.1v3.477h-2.834V26.26h-3.49v1.581H168.1V17.849h9.157v6.059l.112-.064a17.83,17.83,0,0,0,3.944-3.3,18.636,18.636,0,0,0,2.148-2.726h-5.459V15.1H184.9V13.493h-5.579V1.146h14.167V13.493h-5.726V15.1h7.158v2.714h-5.848a17.362,17.362,0,0,0,2.118,2.724l0,0a12.934,12.934,0,0,0,3.841,2.9l.2.1-1.531,2.923-.2-.132a17.029,17.029,0,0,1-4.112-3.837,19.679,19.679,0,0,1-1.628-2.317v7.89Zm.223-.223h2.417v-8.5a20.063,20.063,0,0,0,2.028,3.013,16.823,16.823,0,0,0,4.057,3.788l1.313-2.506-1.312,2.506a16.823,16.823,0,0,1-4.057-3.788,20.063,20.063,0,0,1-2.028-3.013v8.5Zm-16.792-.238h2.386V26.036h0v1.582Zm6.324-.269h2.386v0Zm2.833-3.311,1.193,2.118a19.758,19.758,0,0,0,4.444-3.788,21.706,21.706,0,0,0,2-2.953,21.706,21.706,0,0,1-2,2.953,19.758,19.758,0,0,1-4.444,3.788l-1.193-2.118Zm-6.771-.239V20.339h0Zm.223-.223h3.49V20.563h-3.49ZM194.7,17.595v0h0Zm-16.465,0h0Zm9.307-2.267V13.27h5.727v0h-5.727Zm-7.995-2.058h0Zm7.995-2.118V8.378h0Zm-5.488,0V8.378h0Zm5.712-.223h2.774V8.6h-2.774Zm-5.489,0H184.9V8.6h-2.625Zm5.265-4.549V3.517h0Zm-5.488,0V3.517h0Zm5.712-.224h2.774V3.74h-2.774Zm-5.489,0H184.9V3.74h-2.625ZM112.364,28.079V20.8H108.4l1.755,2.059-.153.146a16.078,16.078,0,0,1-3.691,2.6,28.705,28.705,0,0,1-4.535,1.952l-.192.065-1.229-2.774.242-.073a24.332,24.332,0,0,0,4.314-1.744,17.349,17.349,0,0,0,3.24-2.179l.064-.054h-7.778V18.3h11.931V16.745H102.1V14.12h10.26V12.568H101V9.975h6.083a10.873,10.873,0,0,0-.891-1.054l-.184-.193,1.755-1.17h-7.21V4.963h4.991l-.078-.155a11.842,11.842,0,0,0-1.989-2.839l-.185-.2L105.552.337l.126.13a13.191,13.191,0,0,1,2.186,2.943l.1.188-2.286,1.364h3.7V.161h2.8v4.8h3.132V.161h2.834v4.8h3.2l-2.112-1.852.23-.164A11.775,11.775,0,0,0,122.073.489L122.2.322l2.4,1.554-.139.191a13.729,13.729,0,0,1-2.731,2.9h5.727V7.558h-8.718l2.509.836-.1.226a12.884,12.884,0,0,1-.729,1.355h6.118v2.593H115.317V14.12h9.9v2.625h-9.9V18.3h12.289V20.8h-8.317l.045.021a46.3,46.3,0,0,1,7.464,4.345l.2.146-2.219,2.462-.165-.136a34.972,34.972,0,0,0-6.995-4.475l-.25-.122,1.76-2.242h-3.813v7.277Zm.225-.223h2.5V20.577h12.288v0H115.094v7.278Zm5.129-4.892a35.029,35.029,0,0,1,7.039,4.5l1.91-2.118-1.91,2.118A35.029,35.029,0,0,0,117.718,22.964Zm-17.062,2.028,1.045,2.357a28.423,28.423,0,0,0,4.5-1.94,15.79,15.79,0,0,0,3.639-2.564,15.79,15.79,0,0,1-3.639,2.564,28.423,28.423,0,0,1-4.5,1.94l-1.045-2.357Zm0-4.415h0Zm14.438-2.058v-2H125v0h-9.9Zm-12.766-2h0Zm12.766-2.177v-2h11.214v0H115.094Zm-13.87-2h0Zm18.88-2.3a.366.366,0,0,0-.089.15.366.366,0,0,1,.089-.15,13.184,13.184,0,0,0,.835-1.521A13.184,13.184,0,0,1,120.1,10.048Zm-12.586.15a11.085,11.085,0,0,0-1.164-1.432A11.085,11.085,0,0,1,107.518,10.2Zm2.866-.223h6.729c.095-.165.191-.344.286-.533l0-.005a15.251,15.251,0,0,0,.823-1.823l.021-.056h-9.8A15.286,15.286,0,0,1,110.384,9.975Zm-9.607-2.641h26.456v0Zm17.149-2.147v0Zm-5.964,0v0ZM119.6,3.128l1.939,1.7a13.315,13.315,0,0,0,2.744-2.893,13.315,13.315,0,0,1-2.744,2.893l-1.939-1.7ZM107.667,3.517Zm-4.026-1.7.08.086ZM13.72,28.079v-8.7l-.058,0-.609-2.007.147-.091c.764-.471,1.519-.961,2.254-1.466-.664.079-1.335.139-2,.179l-.209.013-.253-1.99.119-.076A17.709,17.709,0,0,0,17.2,10.5l.089-.109,2.442.639-.26.274a20,20,0,0,1-2.645,2.372c.513-.042,1.063-.1,1.644-.174.554-.459,1.1-.953,1.638-1.468l.114-.109,2.113,1.055-.255.219q-1.528,1.317-3,2.375l1.749-.5.092.123a11.657,11.657,0,0,1,1.794,3.528l.067.213-1.7.522v4.8H16.167v3.817Zm.225-.223h2V24.038h4.923v0H15.942v3.817Zm2-5.638v0Zm-.868-2.967h1.093V22h2.565V19.37h2.019l-.012-.043c-.1-.346-.212-.688-.34-1.021A42.382,42.382,0,0,1,15.074,19.25Zm5.88.015,1.55-.477-1.55.477c-.121-.417-.259-.824-.418-1.223a41.781,41.781,0,0,1-6.711,1.1l-.506-1.67.506,1.67a41.781,41.781,0,0,0,6.711-1.1C20.7,18.441,20.833,18.848,20.954,19.265Zm-7.636-1.789q1.551-.954,3.013-2Q14.868,16.521,13.318,17.476Zm2.864-.3a36.506,36.506,0,0,0,5.756-4.146A36.506,36.506,0,0,1,16.182,17.178Zm1-.332c.762-.088,1.518-.192,2.26-.312-.138-.207-.283-.419-.43-.633l-.127-.184Q18.017,16.329,17.18,16.847Zm2.013-1.071q.329.477.627.924-.3-.447-.625-.924l1.55-.448Zm-5.964-1.641.208,1.641q1.46-.089,2.894-.3-1.433.209-2.894.3l-.208-1.641Zm2.8-.178a18.143,18.143,0,0,0,3.282-2.8A18.143,18.143,0,0,1,16.031,13.957ZM0,28.079V.908H12.021v9.513H2.834V28.079Zm.223-.223H2.61V10.2H11.8v0H2.61V27.855ZM2.61,8.259V6.589h0Zm.225-.223H9.157V6.812H2.834ZM2.61,4.71h0v-1.7h0Zm.225-.225H9.157V3.232H2.834ZM88.632,27.6c-1.183-.146-1.782-1.072-1.782-2.755V11.168h2.833V24.276c0,.488.085.6.1.619l.033.008.035.023a1.418,1.418,0,0,0,.652.081c.608,0,.683-.251.709-.346l.009-.025a6.086,6.086,0,0,0,.251-1.687v-.008c.059-.57.119-1.488.179-2.732l.016-.35,2.708,1.426-.012.148c-.261,3.05-.631,4.848-1.131,5.493a1.354,1.354,0,0,1-1.08.727,4.587,4.587,0,0,1-1.651.188A5.621,5.621,0,0,1,88.632,27.6Zm-1.558-2.755q0,2.357,1.61,2.536a5.366,5.366,0,0,0,1.82.239,4.321,4.321,0,0,0,1.581-.179,1.141,1.141,0,0,0,.954-.626q.716-.866,1.1-5.4-.387,4.534-1.1,5.4a1.141,1.141,0,0,1-.954.626,4.321,4.321,0,0,1-1.581.179,5.366,5.366,0,0,1-1.82-.239Q87.073,27.2,87.074,24.842Zm2.385-.566v0ZM20.349,27.568l-.152-.025-.608-3.149.361.118a9.144,9.144,0,0,0,2.823.5c.408,0,.493-.737.493-1.357V10.3H13.959V.908H26.1V24.515a3.651,3.651,0,0,1-.742,2.474,2.829,2.829,0,0,1-2.226.852A16.626,16.626,0,0,1,20.349,27.568Zm.038-.219a16.351,16.351,0,0,0,2.745.269q2.744,0,2.744-3.1v0q0,3.1-2.744,3.1a16.351,16.351,0,0,1-2.745-.269l-.506-2.626Zm-6.2-17.27h0ZM16.569,8.14V6.589h0Zm.223-.224h6.474v-1.1H16.792ZM16.569,4.71h0v-1.7h0Zm.223-.225h6.474V3.232H16.792ZM211.366,27.452V24.769h7.486V20.921h-6.175V18.3h6.175V15.181c-1.874.129-3.874.214-5.946.251l-.194,0L212.25,12.6h.263a76.271,76.271,0,0,0,14.423-1.189l.191-.037.863,2.448-.247.055c-1.851.4-3.889.739-6.059.994V18.3h6v2.625h-6v3.848h6.951v2.683Zm.223-.224h16.822v0Zm9.873-2.236V20.7h6v0h-6ZM212.9,20.7h0Zm8.561-6.026v0a62.368,62.368,0,0,0,6.233-1.014A62.368,62.368,0,0,1,221.462,14.671Zm-8.949-1.849.388,2.386-.388-2.386Zm6.562,2.118ZM78.038,23.375a16.9,16.9,0,0,0-2.474-4.21l-.156-.2,2.321-1.429.124.154a19.687,19.687,0,0,1,2.654,4.313l.083.184-2.457,1.423Zm-2.3-4.348a16.966,16.966,0,0,1,2.505,4.265L80.3,22.1l-2.059,1.193A16.966,16.966,0,0,0,75.74,19.027Zm-41.575,3.6A27.372,27.372,0,0,0,33.1,17.034l-.071-.229,2.379-.549.059.2a30.6,30.6,0,0,1,1.081,5.619l.019.188-2.378.623Zm-.851-5.657a27.48,27.48,0,0,1,1.074,5.637l1.939-.506-1.939.506A27.48,27.48,0,0,0,33.314,16.968ZM168.195,16V13.315H176.9V16Zm.223-.224h8.263v0Zm-.223-4.4V8.663H176.9v2.714Zm.223-.225h8.263v0Zm45.185-.61v-9.4h13.482v9.4Zm.223-.225h13.036v0Zm2.506-2.3V3.636h0Zm.224-.223h7.576V3.859h-7.576ZM90.684,6.788A15.735,15.735,0,0,0,88.331,2.7l-.157-.2L90.5,1.073l.122.159a21.055,21.055,0,0,1,2.534,4.19l.083.185-2.46,1.425ZM88.506,2.562a15.906,15.906,0,0,1,2.386,4.146L92.95,5.515,90.892,6.708A15.906,15.906,0,0,0,88.506,2.562ZM167.12,6.484V3.77h3.886a16.606,16.606,0,0,0-.857-2.794l-.1-.235,2.79-.74.075.177a18.776,18.776,0,0,1,1.143,3.592h4.155V6.484Zm.223-.224h10.649v0Zm3.938-2.266a16.952,16.952,0,0,0-.924-3.1A16.952,16.952,0,0,1,171.281,3.994ZM66.449,6.365V3.651h5.488a15.366,15.366,0,0,0-1.016-2.293l-.131-.236,3.052-1,.092.155a15.056,15.056,0,0,1,1.436,3.379h5.6V6.365Zm.223-.223H80.75v0ZM72.25,3.874A15.856,15.856,0,0,0,71.117,1.25,15.856,15.856,0,0,1,72.25,3.874Z" transform="translate(233 62.115)" fill="#fff"/></g><g transform="translate(115 27.6)"><circle cx="5.989" cy="5.989" r="5.989" transform="translate(26.457 9.49)" fill="#ea5514"/><path d="M88.651,100.186c.414-1.046.523-1.184.841-2.177,0,0,.352-1.2-.385-1.35,0,0-.518-.2-1.117.86a13.653,13.653,0,0,1-7.254,5.015s-9.8,3.418-19.664-12.149l-.951-1.54a.951.951,0,0,0-.166-.19.528.528,0,0,0-.409-.195A.542.542,0,0,0,59,89v.024a6.179,6.179,0,0,0,.475,1.264s16.061,36.177,32.57,43.108C92.045,133.4,82.538,115.81,88.651,100.186Z" transform="translate(-44.997 -78.024)" fill="#ea5514"/><path d="M155.967,165.14c-.756,2.481-2.567,4.463-6.365,4.463-3.684,0-5.262-2.239-5.262-5.495,0-3.613,2.006-8.708,7.315-8.708,3.974,0,5.181,2.51,5.077,4.73h-3.589c0-.951-.2-2.044-1.744-2.044-2.263,0-3.237,3.722-3.237,6.1,0,1.749.561,2.728,1.849,2.728a2.337,2.337,0,0,0,2.277-1.778Z" transform="translate(-89.772 -113.145)" fill="#f8b62d"/><path d="M185.407,160.98c0,3.475-1.7,8.622-7.52,8.622-3.8,0-5.457-2.263-5.457-5.571,0-3.38,1.9-8.632,7.448-8.632C183.553,155.4,185.407,157.7,185.407,160.98Zm-9.174,3.327c0,1.735.627,2.614,1.963,2.614,2.5,0,3.427-4.345,3.427-6.255,0-1.73-.561-2.6-1.992-2.6-2.434-.01-3.4,4.121-3.4,6.246Z" transform="translate(-104.51 -113.145)" fill="#f8b62d"/><path d="M205.89,164.224l-1.141,5.39H201.17l2.909-13.7h5.447c2.942,0,4.406,1.507,4.406,3.456a3.655,3.655,0,0,1-2.633,3.622c1.008.589,1.345,1.687.951,3.717a20.624,20.624,0,0,0-.442,2.909h-3.589a15.245,15.245,0,0,1,.452-3.1c.309-1.426.209-2.286-1.321-2.286Zm.547-2.586h1.592c1.426,0,2.139-.665,2.139-1.792,0-1.031-.742-1.359-1.54-1.359H207.1Z" transform="translate(-119.589 -113.413)" fill="#f8b62d"/><path d="M238.554,163.978h-5.5l-.608,2.923h6.484l-.951,2.743H228.32l2.909-13.7h9.264l-.589,2.766h-5.7l-.542,2.519h5.5Z" transform="translate(-133.834 -113.428)" fill="#f8b62d"/><path d="M36.993,136.7s-6.816,12.145,13.946,7.539c0,0,14.64-2.291,30.236-16.546,4.278-3.893,11.18-11.37,5.647-14.227,0,0-5.229-2.343-12.43,1.312,0,0,12.43-8.4,18.9-2.134,0,0,5.595,5.029-3.484,16.323,0,0-25.958,28.249-52.063,21.485C37.748,150.453,27.709,147.111,36.993,136.7Z" transform="translate(-31.384 -89.494)" fill="#f8b62d"/><circle cx="5.989" cy="5.989" r="5.989" transform="translate(0 24.962)" fill="#3fb7a0"/><path d="M61.861,124.155S53.01,114.649,44.5,95.407a36.019,36.019,0,0,0-1.611-3.223h0a.542.542,0,0,0-.951.352h0a6,6,0,0,0,.608,1.63s6.617,15.8,1.949,23.89c-3.788,6.541-12.506,1.036-12.506,1.036s-.147-.1-.238-.147H31.7a.408.408,0,0,0-.128-.024h-.124a.423.423,0,0,0-.157.067l-.043.029a.613.613,0,0,0-.09.1.376.376,0,0,0-.038.062.4.4,0,0,0-.033.128c-.181,1.012,1.935,3.636,4.687,5.842A67.925,67.925,0,0,0,49.669,133.6c16.4,5.937,26.01,2.633,26.01,2.633C69.989,133.614,61.861,124.155,61.861,124.155Z" transform="translate(-30.347 -79.88)" fill="#3fb7a0"/><path d="M40.76,66.622l2.229,1.55a.594.594,0,0,0,.556.071l2.543-.951a.6.6,0,0,1,.789.737l-.789,2.6a.608.608,0,0,0,.1.551l1.7,2.125a.6.6,0,0,1-.475.951l-2.69.1a.6.6,0,0,0-.475.271l-1.5,2.267a.6.6,0,0,1-1.089-.162l-.889-2.567a.6.6,0,0,0-.409-.385l-2.619-.708a.6.6,0,0,1-.2-1.06l2.168-1.64a.6.6,0,0,0,.238-.509l-.124-2.714a.6.6,0,0,1,.946-.523Z" transform="translate(-33.607 -66.51)" fill="#f8b62d"/></g><g transform="translate(115 29.604)" opacity="0" clip-path="url(#b)"><g clip-path="url(#b)"><path d="M60.379,31.426A28.954,28.954,0,1,1,31.425,2.472,28.954,28.954,0,0,1,60.379,31.426" transform="translate(-1.425 -1.426)" fill="#fff"/><path d="M30,60A30,30,0,1,1,60,30,30.034,30.034,0,0,1,30,60M30,2.092A27.909,27.909,0,1,0,57.908,30,27.94,27.94,0,0,0,30,2.092" fill="#d1d1d0"/><path d="M23.582,31.327l-.332.117a.818.818,0,0,0-.13-.568,1.782,1.782,0,0,1,.23-.124c.078-.035.121-.046.132-.033a.043.043,0,0,1,0,.039.109.109,0,0,0,.012.08,1.14,1.14,0,0,1,.061.153.8.8,0,0,1,.032.335m3.319.379a.815.815,0,0,0-.442-.161c.137-.138.27-.281.4-.426a.312.312,0,0,0,.087-.159q0-.127-.379-.536l-.615.707a1.209,1.209,0,0,1,.2.828,3.145,3.145,0,0,1-.5,1.19.991.991,0,0,0-.235-.052,1.322,1.322,0,0,0-.257-.009,3.251,3.251,0,0,0,.456-.918.872.872,0,0,0-.043-.6l-.659.757-.282-.246-.2.229-.58-.506.035-.039a1,1,0,0,0-.318-.012,1.506,1.506,0,0,0,.2-.569.674.674,0,0,0-.11-.414,2.464,2.464,0,0,0-.359-.394l.3-.345a2.538,2.538,0,0,1,.457.527q.4-.149.649-.222l-.007.436a5.02,5.02,0,0,0-.518.149,1.184,1.184,0,0,1-.1.616l.53-.609.534-.613a.927.927,0,0,0-.364,0,1.476,1.476,0,0,0,.179-.553.684.684,0,0,0-.11-.407,2.3,2.3,0,0,0-.332-.378l.306-.351a2.475,2.475,0,0,1,.439.525q.547-.22.9-.324l.006.316.124-.14.578.5-.235.271c.018.019.054.052.108.1a7.159,7.159,0,0,1,.545.6.71.71,0,0,1,.171.355.624.624,0,0,1-.143.394c-.079.108-.219.269-.417.484m-2.546-1.42-.286.157a2.771,2.771,0,0,0-.166-.486,3.083,3.083,0,0,1,.289-.159c.1-.044.144-.059.145-.046a.089.089,0,0,1-.011.036.1.1,0,0,0-.025.079c0,.018.006.043.011.077s.008.059.009.077c.008.05.016.122.027.218a.277.277,0,0,0,.005.046m.432-.36-.335.126a.8.8,0,0,0-.137-.566q.123-.076.23-.129c.081-.038.124-.05.133-.038a.039.039,0,0,1,0,.042.1.1,0,0,0,.012.08,1.274,1.274,0,0,1,.063.156.706.706,0,0,1,.032.328m-.058,1.982.6-.684c-.054-.058-.133-.14-.235-.245l-.309.353-.306.352Zm.9-3.048-.3.166a2.1,2.1,0,0,0-.156-.523,2.34,2.34,0,0,1,.3-.165c.1-.047.149-.062.149-.046a.058.058,0,0,1-.014.04.109.109,0,0,0-.021.082c0,.025.006.063.012.116,0,.022,0,.036.006.046.007.056.014.137.02.242a.3.3,0,0,0,0,.043m-.347,1.3.373-.428.374-.429c-.159.042-.371.11-.635.206a1.36,1.36,0,0,1-.112.651m.41.647.409-.469.407-.469-.255-.223-.8.918c.074.075.153.157.239.243" transform="translate(-13.332 -16.311)" fill="#474746"/><path d="M34.913,24.529a1.3,1.3,0,0,0-.428-.059q-.935.843-1.288,1.154l-.282-.272c.272-.234.5-.425.674-.573l-.138-.185-.305.229q-.108.081-.3.242a.579.579,0,0,1-.117-.134.533.533,0,0,1-.1-.149q.157-.1.315-.218l.306-.229-.091-.121-.6.448-.356-.475-.359-.478.6-.448-.09-.121-.344.258c-.077.058-.187.146-.332.269-.012,0-.051-.047-.12-.137a.586.586,0,0,1-.1-.153c.12-.077.236-.159.351-.243l.344-.258-.092-.124q-.321.274-.567.464a1.223,1.223,0,0,0-.288-.19A14.062,14.062,0,0,0,32.6,21.746l.387.138c-.152.167-.34.351-.565.555l.114.15.667-.5.128.169.325-.245q-.149-.208-.479-.648l.4-.3c.222.294.38.511.477.651l.708-.531c.04.054.079.11.12.166q.716,1.006.955,1.389a1.464,1.464,0,0,1,.266.592.462.462,0,0,1-.043.2.818.818,0,0,1-.114.159,3.537,3.537,0,0,1-.425.337.928.928,0,0,0-.384-.262c.135-.085.257-.168.363-.248a.182.182,0,0,0,.078-.141,1.092,1.092,0,0,0-.2-.45q-.22-.351-.763-1.1l-.313.234a4.774,4.774,0,0,1,.63,1.237,2.064,2.064,0,0,1-.011,1.229m-2.457-.7.268-.2-.1-.136-.135.1-.134.1Zm.268.358.271-.2-.1-.138-.136.1-.134.1Zm1.222.281c.137-.117.33-.284.574-.5a1.9,1.9,0,0,0-.155-.792,4.524,4.524,0,0,0-.465-.819l-.316.237-.181-.241-.668.5.09.121.618-.464.359.479.356.475-.616.464.09.121.316-.238c.074-.055.176-.137.306-.249.012,0,.051.046.117.135a.516.516,0,0,1,.1.149c-.11.07-.219.145-.326.225l-.316.238ZM33.1,23.344l.274-.206-.1-.136-.138.1-.136.1Zm.269.358.136-.1.138-.1-.1-.14-.273.206Z" transform="translate(-17.999 -12.149)" fill="#474746"/><path d="M42.048,16.75a.806.806,0,0,1-.1-.193.678.678,0,0,1-.077-.2c.122-.044.245-.1.366-.151l.363-.168-.072-.158c-.02-.041-.049-.1-.086-.164a3.1,3.1,0,0,1,.324-.145c.141-.054.218-.07.227-.05a.2.2,0,0,0,0,.166l.064.141.363-.168c.081-.036.2-.1.356-.18a.732.732,0,0,1,.1.188.8.8,0,0,1,.08.2q-.2.07-.484.2l-.476.218-.476.219q-.214.1-.468.237m.374,1.035a.947.947,0,0,1-.109-.2.7.7,0,0,1-.079-.206,1.952,1.952,0,0,0,.23-.094l.226-.1a2.052,2.052,0,0,0-.375-.456l.351-.246a1.642,1.642,0,0,1,.4.437l-.336.249,1.049-.483-.369.08a2.74,2.74,0,0,0-.082-.6,2.067,2.067,0,0,1,.37-.055c.128-.006.192.008.193.039a.118.118,0,0,1-.028.077.262.262,0,0,0-.044.155c0,.018,0,.042,0,.073,0,.1,0,.175,0,.218l.23-.106c.078-.036.154-.075.226-.116a.81.81,0,0,1,.1.2.936.936,0,0,1,.085.215,5.072,5.072,0,0,0-.518.215l-.508.235-.508.232c-.17.078-.336.164-.5.256m1.171,1.383a.922.922,0,0,1-.254.1,6.843,6.843,0,0,0-.281-.7l-.159-.34c-.052-.114-.11-.226-.172-.334a.016.016,0,0,1,.008-.024,4.164,4.164,0,0,0,.416-.171l.407-.187.411-.19c.159-.074.292-.143.4-.206a.016.016,0,0,1,.025.01c.04.117.087.232.138.344l.155.337a5.987,5.987,0,0,0,.344.659,1.007,1.007,0,0,1-.25.137c-.156.071-.238.1-.246.091s-.007-.014-.014-.028a.552.552,0,0,0-.02-.054l-.036-.081-.738.34.041.088a.374.374,0,0,0,.028.05c.007.016.012.028.016.035s-.07.054-.218.122m-.034-.656.366-.169.371-.173-.214-.462-.737.34Zm1.974-.243a1.1,1.1,0,0,1-.274.1,6.976,6.976,0,0,0-.317-.785l-.353-.768-.355-.772a7.243,7.243,0,0,0-.39-.75c-.007-.013,0-.027.027-.038.143-.05.332-.129.566-.237L45,14.766l.061-.048.433.03q.032.822.008,1.258a1.227,1.227,0,0,1,.773.639.634.634,0,0,1,.027.621.74.74,0,0,1-.23.212,2.267,2.267,0,0,1-.312.152.934.934,0,0,0-.123-.191.86.86,0,0,0-.179-.168,2.317,2.317,0,0,0,.224-.094.557.557,0,0,0,.132-.1c.046-.063.04-.157-.016-.281a1.064,1.064,0,0,0-.733-.53q0-.264-.054-.9c0-.058-.007-.1-.01-.128l-.48.222.751,1.629a9.9,9.9,0,0,0,.533,1.03,1.212,1.212,0,0,1-.271.146" transform="translate(-24.143 -8.487)" fill="#474746"/><path d="M53.736,12.735l-.337-.1a.822.822,0,0,0,.232-.534,1.815,1.815,0,0,1,.258.036c.083.019.125.036.125.052s-.009.02-.025.028a.109.109,0,0,0-.039.072.954.954,0,0,1-.042.16.781.781,0,0,1-.172.287m2.443,2.278a.8.8,0,0,0-.259-.394c.193-.03.384-.066.571-.108a.317.317,0,0,0,.166-.075,1.29,1.29,0,0,0,.013-.656l-.914.2a1.2,1.2,0,0,1-.331.785,3.151,3.151,0,0,1-1.108.663.983.983,0,0,0-.159-.183,1.435,1.435,0,0,0-.2-.161,3.2,3.2,0,0,0,.911-.468.875.875,0,0,0,.323-.511l-.98.218-.08-.364-.295.064-.167-.749.051-.012a.986.986,0,0,0-.249-.2,1.5,1.5,0,0,0,.5-.34.667.667,0,0,0,.157-.4,2.443,2.443,0,0,0-.054-.53l.447-.1a2.511,2.511,0,0,1,.054.7c.273.077.491.145.656.206l-.263.348a4.785,4.785,0,0,0-.507-.188,1.192,1.192,0,0,1-.442.439l.788-.175.793-.176a.908.908,0,0,0-.29-.221,1.471,1.471,0,0,0,.47-.339.667.667,0,0,0,.153-.394,2.163,2.163,0,0,0-.043-.5l.456-.1a2.515,2.515,0,0,1,.043.682q.569.151.916.276l-.184.258.183-.04.167.75-.351.078c0,.026.012.074.027.144a7.368,7.368,0,0,1,.08.809.707.707,0,0,1-.074.387.625.625,0,0,1-.348.233c-.128.037-.336.086-.624.142m-1.865-1.128.885-.2q-.014-.121-.044-.339l-.458.1-.456.1Zm.662-1.527-.324-.043a2.655,2.655,0,0,0,.155-.489,3.046,3.046,0,0,1,.327.044c.1.02.152.038.145.049a.068.068,0,0,1-.032.023.1.1,0,0,0-.066.051l-.036.067-.038.067c-.024.046-.059.109-.108.191a.262.262,0,0,0-.023.04m.561-.033-.344-.1a.807.807,0,0,0,.226-.536c.1.008.183.019.262.032s.129.035.129.048a.042.042,0,0,1-.024.036.1.1,0,0,0-.039.071,1.355,1.355,0,0,1-.04.163.713.713,0,0,1-.169.284m.2,1.244.607-.135.606-.136-.074-.331-1.187.264c.015.1.03.218.048.337m.053-.764.555-.122.554-.124c-.153-.061-.364-.132-.633-.211a1.348,1.348,0,0,1-.476.457m1.05-.838-.336-.044a2.1,2.1,0,0,0,.185-.516,2.906,2.906,0,0,1,.337.046c.108.023.157.04.148.052s-.016.018-.036.025a.1.1,0,0,0-.064.054c-.014.021-.034.055-.061.1a.266.266,0,0,0-.022.04c-.03.048-.071.117-.128.206a.384.384,0,0,0-.024.038" transform="translate(-30.793 -6.513)" fill="#474746"/><path d="M67.806,14.091a1.321,1.321,0,0,0-.308-.3q-1.25.119-1.723.156l-.063-.386L66.6,13.5v-.231h-.382c-.089,0-.217.006-.382.016a.487.487,0,0,1-.014-.177.54.54,0,0,1,.012-.177c.125.009.251.015.382.015l.381,0v-.15l-.746,0v-.6l0-.6.746,0v-.15h-.43c-.1,0-.238.006-.426.016a.55.55,0,0,1-.015-.182.521.521,0,0,1,.014-.182c.141.011.284.015.426.015h.431v-.155q-.422.028-.733.032a1.183,1.183,0,0,0-.117-.323,14.256,14.256,0,0,0,1.879-.2l.227.343c-.222.042-.484.077-.785.106v.19l.835,0v.213l.409,0q0-.254,0-.806l.5,0c0,.369,0,.638-.007.807l.883,0c0,.067,0,.136,0,.2q-.028,1.236-.066,1.683a1.451,1.451,0,0,1-.141.633.432.432,0,0,1-.155.136.753.753,0,0,1-.185.059,3.572,3.572,0,0,1-.542.016.937.937,0,0,0-.152-.44c.16.014.305.019.439.019a.177.177,0,0,0,.145-.066,1.053,1.053,0,0,0,.106-.483q.034-.413.049-1.341h-.39a4.828,4.828,0,0,1-.237,1.367,2.053,2.053,0,0,1-.743.979m-1.552-2.03.337,0V11.89h-.169l-.168,0Zm0,.447h.337v-.174l-.169,0h-.168Zm.811.956c.18-.011.434-.03.76-.057a1.9,1.9,0,0,0,.348-.727,4.474,4.474,0,0,0,.117-.935l-.4,0v-.3l-.835,0v.15l.773,0v1.193l-.772,0v.151h.4q.137,0,.4-.016a.538.538,0,0,1,.014.177.574.574,0,0,1-.012.177c-.13-.009-.262-.014-.4-.014h-.4Zm0-1.407H67.4v-.171h-.342Zm0,.448h.342v-.175h-.342Z" transform="translate(-37.894 -6.042)" fill="#474746"/><path d="M77.242,14.75a1.1,1.1,0,0,0-.138-.23,1.654,1.654,0,0,0-.181-.219,2.585,2.585,0,0,0,1.265-.69,2.4,2.4,0,0,0,.544-.956l-.644-.133c-.211-.043-.426-.079-.644-.108a1.231,1.231,0,0,1,.04-.258,1.112,1.112,0,0,1,.064-.248c.159.048.375.1.647.156l.654.135.079-.39a3.487,3.487,0,0,0,.062-.409c.13.022.268.051.408.087.171.046.255.08.251.1a.724.724,0,0,0-.179.342l-.077.379.861.175.864.177c-.017.07-.036.141-.056.213q-.3,1.133-.473,1.6a1.294,1.294,0,0,1-.354.6.567.567,0,0,1-.225.112.813.813,0,0,1-.252.012,4.676,4.676,0,0,1-.68-.132,1.043,1.043,0,0,0,0-.245A1,1,0,0,0,79,14.561c.174.049.383.1.628.148a.309.309,0,0,0,.213-.02,4.346,4.346,0,0,0,.633-1.679l-1.191-.243a2.967,2.967,0,0,1-.606,1.144,2.85,2.85,0,0,1-1.433.839" transform="translate(-44.358 -6.573)" fill="#474746"/><path d="M88.664,17.517a.745.745,0,0,0,.017-.414c.16.085.319.161.476.232a.286.286,0,0,0,.16.032c.066-.019.168-.148.307-.389l-.516-.227-.062.074-.354-.219a7.305,7.305,0,0,0,.591-.781l.735.324.109-.247-.657-.29.011-.025c-.1,0-.2-.009-.326-.021a1.8,1.8,0,0,0-.117-.418,3,3,0,0,0,.781.023c-.078-.119-.168-.242-.273-.373l.366-.1a3.217,3.217,0,0,1,.321.408,1.8,1.8,0,0,0,.331-.125L90.17,14.8q-.131-.057-.4-.157a.615.615,0,0,1,.067-.184.549.549,0,0,1,.088-.169,2.523,2.523,0,0,0,.256.125l.26.116.52.229.089.017.232.254a2.319,2.319,0,0,1-1.11.507l.508.223-.313.712a.634.634,0,0,0,.347-.127.606.606,0,0,0,.156-.222l.11-.251.789.347a2.706,2.706,0,0,1-.414-1.32l.421.072a1.957,1.957,0,0,0,.08.444,3.273,3.273,0,0,0,.511-.159,1.416,1.416,0,0,1,.15.292c.036.1.038.152.007.157a.109.109,0,0,1-.075-.008.245.245,0,0,0-.152-.009l-.247.048-.063.011c.051.1.1.183.145.254a3.414,3.414,0,0,0,.589-.171,1.451,1.451,0,0,1,.152.285c.039.1.046.153.016.16a.152.152,0,0,1-.074-.008.268.268,0,0,0-.148-.006c-.135.025-.233.043-.295.051a3.124,3.124,0,0,0,.476.429,1.8,1.8,0,0,0-.431.207,3.874,3.874,0,0,1-.378-.364l-.144.326a.283.283,0,0,0-.03.087.078.078,0,0,0,.039.035l.069.03a.235.235,0,0,0,.051.019.076.076,0,0,0,.061-.027,1.432,1.432,0,0,0,.086-.153,1.057,1.057,0,0,0,.261.3c-.007.008-.015.02-.025.035a.638.638,0,0,1-.13.167.268.268,0,0,1-.194.033.64.64,0,0,1-.2-.059l-.2-.09a.414.414,0,0,1-.226-.192.265.265,0,0,1-.024-.141.954.954,0,0,1,.074-.224l.09-.2-.358-.157a.88.88,0,0,1-.746.506,1.493,1.493,0,0,0-.145-.342l-.033.078a.166.166,0,0,0-.016.047c-.008.016-.012.027-.015.033a.726.726,0,0,1-.218-.08c-.137-.061-.206-.1-.2-.108l0-.007a.07.07,0,0,0,.011-.012l.009-.022-.407-.179c-.061.086-.11.153-.152.2l.882.389-.074.144a5.209,5.209,0,0,1-.324.541.541.541,0,0,1-.243.21.55.55,0,0,1-.37-.019c-.116-.041-.292-.117-.53-.23m1.179.541a1.255,1.255,0,0,0-.066-.391,3.285,3.285,0,0,0,.762.12,1.76,1.76,0,0,1-.155-.541l.288.051-.191-.085c-.047-.02-.112-.045-.2-.077a.463.463,0,0,1,.054-.153c.042-.094.067-.144.08-.146.1.054.2.106.311.153l.321.141.641.282.078.022.223.187a1.644,1.644,0,0,1-.748.464,3.265,3.265,0,0,0,.628.462,1.432,1.432,0,0,0-.426.217,2.98,2.98,0,0,1-.671-.6,3.491,3.491,0,0,1-.935-.1m1.12-.308a1.237,1.237,0,0,0,.4-.151l-.289-.127-.285-.125a1.291,1.291,0,0,0,.177.4" transform="translate(-51.129 -8.241)" fill="#474746"/><path d="M97.878,22.74a1.6,1.6,0,0,0-.1-.231,1.786,1.786,0,0,0-.13-.229,2.421,2.421,0,0,0,.921-.6,6.329,6.329,0,0,0,.67-.806l.336-.462a4.986,4.986,0,0,0,.312-.475c.012-.019.024-.021.039-.011.168.146.387.319.657.515l.68.492.681.492c.273.2.505.354.7.468.014.011.015.024,0,.04a3.865,3.865,0,0,0-.327.406l-.309.426-.478-.347-.149.206.254.185c.088.062.174.12.26.174a.649.649,0,0,1-.109.171.716.716,0,0,1-.129.157c-.056-.05-.137-.114-.245-.193l-.256-.185-.155.213.331.241c.077.055.189.13.34.227a.722.722,0,0,1-.111.176.7.7,0,0,1-.132.159,1.449,1.449,0,0,0-.176-.143l-.187-.135.142.332a5.151,5.151,0,0,1-.638-.086,2.69,2.69,0,0,0,.478.648,1.352,1.352,0,0,0-.469.126,2.3,2.3,0,0,1-.59-1.154l-.17.265c-.207-.108-.515-.274-.926-.5l-.512-.277.187-.379c.136.079.265.155.387.223l.345-.479-.183-.133c-.043-.031-.1-.073-.184-.124a.679.679,0,0,1,.109-.172c.075-.1.119-.157.129-.156.061.054.148.121.262.2l.27.2.155-.213-.223-.161a2.686,2.686,0,0,0-.226-.151.634.634,0,0,1,.108-.172c.075-.1.118-.157.129-.156a2.094,2.094,0,0,0,.214.168l.222.161.15-.207-.516-.371-.054.075a3.985,3.985,0,0,1-1.784,1.562m1.492.362.162.087c.062.036.109.062.141.078.066.039.168.1.305.168a2.083,2.083,0,0,1,.016-.546l-.308-.222Zm.576-2.317,1.862,1.35.159-.219-.932-.675-.93-.675Zm.143,1.7.524.381.155-.213-.262-.189-.262-.191Zm.341,1.049a4.846,4.846,0,0,0,.514.048l-.277-.2-.276-.2a1.573,1.573,0,0,0,.039.352m.036-1.571.526.381.149-.207-.262-.19-.262-.19Z" transform="translate(-56.31 -11.484)" fill="#474746"/><path d="M107.887,30.671a.883.883,0,0,1-.172-.221,4.332,4.332,0,0,0,.353-.289l.337-.3q-.294-.177-.6-.4a1.543,1.543,0,0,0,.07-.211,1.39,1.39,0,0,0,.046-.226,10,10,0,0,0,1.537.964l-.543-.6q-.257-.283-.563-.58a.686.686,0,0,1,.135-.14.657.657,0,0,1,.151-.119c.121.161.271.34.447.537l.469.522.137-.125-.347-.386c-.1-.117-.225-.24-.359-.37,0-.013.043-.056.124-.129a.6.6,0,0,1,.14-.109q.13.171.331.4l.347.386.113-.1-.769-.856.332-.3a3.692,3.692,0,0,0,.318-.316c.015-.014.027-.015.038,0q.2.269.535.641l.562.624,1.121,1.248-.332.3a3.753,3.753,0,0,0-.318.316c-.015.014-.027.015-.038,0-.133-.179-.315-.4-.544-.651l-.566-.631-.113.1.641.713-.142.129a3.518,3.518,0,0,0,.5.082,1.572,1.572,0,0,1,.038.342c0,.112-.015.166-.043.16a.109.109,0,0,1-.064-.038.233.233,0,0,0-.148-.064c-.106-.025-.218-.049-.334-.077l.245.271c.053.059.137.145.251.257,0,.012-.041.055-.125.13a.582.582,0,0,1-.145.113c-.085-.114-.2-.248-.336-.4l-.35-.39a2.5,2.5,0,0,1,.215.5l-.192-.024.192.215-.481.434a5.734,5.734,0,0,0-.463.457,1.093,1.093,0,0,1-.213-.208c-.124-.137-.18-.211-.171-.224l.007-.005a.169.169,0,0,0,.025-.018l.035-.031-1.061-1.179-.035.032-.016.017c-.008.01-.012.015-.015.016s-.075-.054-.19-.181m.483-.088,1.059,1.178.121-.109-.531-.59-.53-.588Zm.315-.285.53.588.531.591.121-.109-1.061-1.178Zm.754.122.306.34.305.34a4.047,4.047,0,0,0-.19-.4l.265.03-.033-.036q-.308-.111-.654-.277m.39-1.957.151.168.155.172.195-.176-.305-.34Zm.061,1.516.3.331a3.529,3.529,0,0,0,.353.117l-.258-.288-.255-.284Zm.562-.823.316.35.195-.175-.157-.175-.157-.175Zm.631.7.32.356.195-.176-.16-.178-.16-.179Z" transform="translate(-62.115 -15.965)" fill="#474746"/><path d="M18.7,44.865l0-.008-2.075-1.464.254-.527,2.994.828-.2.418-2.29-.675,0,.007,1.95,1.383-.262.543-2.3-.653,0,.007L18.716,46.1l-.2.4L16,44.68l.257-.534Z" transform="translate(-9.229 -24.719)" fill="#474746"/><path d="M17.088,51.835c-.178.53-.784.866-1.818.519s-1.316-.984-1.139-1.514.783-.867,1.817-.519,1.317.984,1.14,1.514m-2.554-.859c-.1.3.106.63.9.9s1.154.124,1.252-.172-.1-.629-.9-.9-1.155-.125-1.253.172" transform="translate(-8.12 -28.936)" fill="#474746"/><path d="M15.519,56.366l-.184.824a.718.718,0,0,1-.955.61.67.67,0,0,1-.584-.67l-.012,0c-.039.094-.114.192-.409.213l-1.2.087.114-.514,1.021-.042c.247-.012.352-.118.391-.3l.024-.109-1.273-.29.108-.484Zm-1.441.388a.415.415,0,0,0,.353.534c.339.077.46-.063.521-.335l.043-.2-.874-.2Z" transform="translate(-7.019 -32.115)" fill="#474746"/><path d="M14.579,61.841l-.059.489-1.28-.161,0,.011,1.19.922-.069.562L13.045,62.58l-1.716.777.071-.593,1.517-.624v-.011l-1.419-.18.059-.489Z" transform="translate(-6.533 -35.442)" fill="#474746"/><path d="M14.289,67.373l-.046,1.365-.445-.017.028-.87L13,67.818l-.028.832-.445-.017.027-.831-1.328-.051.016-.495Z" transform="translate(-6.471 -38.784)" fill="#474746"/><path d="M14.291,72.543c.03.56-.414,1.1-1.511,1.164s-1.6-.423-1.627-.984.414-1.1,1.51-1.164,1.6.423,1.628.985m-2.709.155c.016.313.332.547,1.171.5s1.127-.318,1.11-.63-.332-.547-1.171-.5-1.126.317-1.109.63" transform="translate(-6.431 -41.262)" fill="#474746"/><path d="M14.629,77.309l.129.834a.727.727,0,0,1-.674.92.667.667,0,0,1-.789-.406h-.014c0,.1-.036.222-.305.35l-1.1.527-.08-.52.942-.417a.36.36,0,0,0,.258-.42l-.017-.112-1.3.2-.075-.49ZM13.42,78.2a.411.411,0,0,0,.526.364c.345-.054.407-.227.366-.5l-.031-.2L13.389,78Z" transform="translate(-6.695 -44.581)" fill="#474746"/><path d="M13.388,85.017a1.356,1.356,0,0,1-.25-.538c-.206-.794.34-1.37,1.2-1.593s1.614.016,1.814.793a1.545,1.545,0,0,1,.028.612l-.489.1a.96.96,0,0,0,.032-.535c-.1-.4-.494-.658-1.255-.46s-.975.616-.872,1.013a.77.77,0,0,0,.28.455Z" transform="translate(-7.551 -47.752)" fill="#474746"/><path d="M17.052,87.263l.479,1.327-.421.149-.311-.863-.767.273.295.817-.42.149-.294-.816-.849.3.324.9-.42.151-.491-1.362Z" transform="translate(-8.176 -50.322)" fill="#474746"/><path d="M19.831,93.606l.329.62c.394.743.147,1.38-.746,1.855s-1.6.242-1.952-.418l-.329-.62Zm-2.088,1.671.078.146c.26.489.756.51,1.347.2s.854-.738.593-1.229l-.078-.147Z" transform="translate(-9.879 -53.979)" fill="#474746"/><path d="M22.8,98.57l.787,1.171-.368.249-.512-.762-.673.453.484.721-.368.249-.484-.721-.745.5.534.795-.369.249-.808-1.2Z" transform="translate(-11.691 -56.842)" fill="#474746"/><path d="M25.93,101.927l.336.411-1.487,1.891.006.005,2.184-1.037.323.394L24.4,104.863l-.329-.4Z" transform="translate(-13.878 -58.778)" fill="#474746"/><path d="M29.106,106.285l.987,1.018-.321.309-.643-.663-.586.562.608.627-.321.309-.608-.627-.649.623.67.691-.321.308L26.906,108.4Z" transform="translate(-15.516 -61.291)" fill="#474746"/><path d="M32.464,109.426l.371.328-1.7,1.954.667.589-.29.335-1.038-.917Z" transform="translate(-17.571 -63.103)" fill="#474746"/><path d="M37.275,113.183c.457.329.6,1.013-.044,1.9s-1.339.965-1.8.636-.6-1.012.044-1.9,1.339-.966,1.8-.638m-1.589,2.189c.256.183.637.087,1.129-.59s.464-1.069.208-1.252-.637-.088-1.129.589-.464,1.069-.208,1.253" transform="translate(-20.208 -65.166)" fill="#474746"/><path d="M41.008,115.435l.672.386a.931.931,0,0,1-.928,1.607l-.242-.138-.6,1.033-.431-.248Zm-.122,1.576c.269.155.472.075.638-.213s.132-.5-.137-.653l-.162-.093-.5.866Z" transform="translate(-22.768 -66.567)" fill="#474746"/><path d="M47.144,119.087l-.007,0-1.644,2.05-.322-.141.437-2.583-.007,0-1.027,2.324-.409-.182,1.231-2.786.674.3-.411,2.3.008,0,1.437-1.852.654.288-1.232,2.786-.41-.18Z" transform="translate(-25.469 -67.911)" fill="#474746"/><path d="M52.662,120.585l1.357.417-.133.423-.883-.27-.242.773.835.257-.133.423-.835-.255-.269.856.921.282-.133.425-1.393-.429Z" transform="translate(-29.844 -69.537)" fill="#474746"/><path d="M57.356,121.852l.574.116.417,2.524h.008l.46-2.349.439.089-.586,2.99-.578-.116-.417-2.507h-.007l-.457,2.332-.44-.088Z" transform="translate(-32.736 -70.268)" fill="#474746"/><path d="M63.825,123.382l-.6-.066.047-.441,1.678.184-.047.441-.593-.065-.276,2.579-.489-.054Z" transform="translate(-36.462 -70.858)" fill="#474746"/><path d="M71.265,125.631l-.928.022-.172.738-.495.011.817-3.07.541-.012.958,3.031-.51.01Zm-.117-.425-.381-1.418h-.008l-.329,1.433Z" transform="translate(-40.176 -71.114)" fill="#474746"/><path d="M76.806,124.088l.864-.113.2,1.58a1.459,1.459,0,0,1-.7.25c-.856.113-1.394-.484-1.507-1.381s.26-1.613,1.116-1.726a1.576,1.576,0,0,1,.665.044l.036.5a1.094,1.094,0,0,0-.639-.1c-.52.069-.738.59-.659,1.217.086.68.411,1.077.913,1.011a.714.714,0,0,0,.276-.094l-.1-.813-.4.054Z" transform="translate(-43.619 -70.747)" fill="#474746"/><path d="M81.19,121.94l1.389-.323.1.431-.9.211.179.789.855-.2.1.433-.854.2.2.874.941-.219.1.433-1.425.332Z" transform="translate(-46.82 -70.132)" fill="#474746"/><path d="M85.558,120.523l.555-.185,1.608,1.974h.006l-.759-2.258.423-.141.968,2.875-.559.187-1.6-1.959-.006,0,.754,2.24-.425.141Z" transform="translate(-49.338 -69.149)" fill="#474746"/><path d="M94.308,120.514a1.316,1.316,0,0,1-.481.34c-.74.337-1.4-.1-1.768-.906s-.268-1.592.457-1.924a1.555,1.555,0,0,1,.593-.133l.184.465a.938.938,0,0,0-.53.062c-.37.168-.557.6-.23,1.314s.775.854,1.144.685a.759.759,0,0,0,.4-.353Z" transform="translate(-52.967 -67.984)" fill="#474746"/><path d="M96.609,117.3,95,116.12l.464-.266,1.066.792-.179-1.3.464-.266.227,1.99.605,1.047-.431.248Z" transform="translate(-54.786 -66.361)" fill="#474746"/><path d="M102.409,119.641l.337,1.066-.31.2-.416-1.015Z" transform="translate(-58.831 -68.993)" fill="#474746"/><path d="M104.6,109.423l-.007.005,1.148,2.373-.268.23-2.154-1.511-.005.005,1.662,1.933-.34.292-2-2.317.562-.481,1.912,1.366.007-.005-1.057-2.1.544-.465,1.994,2.317-.342.292Z" transform="translate(-59.187 -62.71)" fill="#474746"/><path d="M108.106,107.371l.344-.355,2.2,2.111-.344.355Z" transform="translate(-62.341 -61.713)" fill="#474746"/><path d="M109.929,103.97l.371-.453,2.407.828.005-.007-1.842-1.519.282-.345,2.347,1.935-.373.457-2.392-.82,0,.007,1.829,1.509-.284.345Z" transform="translate(-63.392 -59.093)" fill="#474746"/><rect width="0.494" height="3.052" transform="matrix(0.577, -0.817, 0.817, 0.577, 48.063, 42.941)" fill="#474746"/><path d="M117.39,99.1a1.009,1.009,0,0,0,.453-.394.4.4,0,0,0-.168-.581c-.187-.114-.326-.067-.577.062l-.262.133a.865.865,0,0,1-.91-.036.807.807,0,0,1-.276-1.162,1.566,1.566,0,0,1,.382-.428l.389.262a1.167,1.167,0,0,0-.371.367.342.342,0,0,0,.114.508.456.456,0,0,0,.5-.032l.305-.153a.831.831,0,0,1,.941.024.849.849,0,0,1,.324,1.253,1.11,1.11,0,0,1-.431.457Z" transform="translate(-66.612 -55.758)" fill="#474746"/><path d="M117.778,93.428l-.269.536-.4-.2.757-1.513.4.2-.266.534,2.329,1.151-.221.441Z" transform="translate(-67.533 -53.201)" fill="#474746"/><path d="M119.143,89.812l.3-.788a.725.725,0,0,1,1.038-.465.664.664,0,0,1,.481.743l.012,0c.052-.087.143-.174.437-.152l1.21.085-.188.491-1.02-.1a.36.36,0,0,0-.432.237l-.04.1,1.222.467-.177.462Zm1.488-.177a.411.411,0,0,0-.273-.577c-.327-.124-.467,0-.566.257l-.073.187.841.321Z" transform="translate(-68.706 -51.026)" fill="#474746"/><path d="M122.564,84.927l-1.982.251.151-.51,1.322-.163-1.033-.814.151-.511,1.543,1.275,1.164.339-.14.473Z" transform="translate(-69.535 -47.968)" fill="#474746"/><path d="M122.78,76.643c.073-.554.608-1,1.693-.852s1.487.721,1.415,1.275-.608,1-1.694.851-1.487-.719-1.414-1.273m2.683.364c.041-.309-.225-.6-1.055-.711s-1.163.094-1.2.4.224.6,1.055.711,1.163-.1,1.2-.4" transform="translate(-70.798 -43.689)" fill="#474746"/><path d="M123.256,72.451l.046-1.365.445.017-.028.87.829.033.028-.832.445.017-.027.831,1.328.051-.016.495Z" transform="translate(-71.078 -40.993)" fill="#474746"/><path d="M123.264,65.423l-.043-.495L125.8,64.7l-.078-.889.441-.039.121,1.385Z" transform="translate(-71.057 -36.777)" fill="#474746"/><path d="M124.686,58.38l.161.908.753.062.086.484-3.149-.356-.094-.53,2.84-1.38.089.5Zm-.4.176-1.338.58v.008l1.463.116Z" transform="translate(-70.609 -33.197)" fill="#474746"/><path d="M121.511,55.189l-.214-.754c-.152-.533.005-.84.5-.979a.674.674,0,0,1,.8.24h.008a.665.665,0,0,1,.563-.686.793.793,0,0,1,1.052.573l.223.788Zm1.1-.8-.07-.245A.407.407,0,0,0,122,53.9a.375.375,0,0,0-.286.492l.066.232Zm1.294-.363-.074-.262a.47.47,0,0,0-.9.266l.07.249Z" transform="translate(-69.916 -30.544)" fill="#474746"/><path d="M119.464,48.974c-.207-.518.038-1.17,1.05-1.581s1.639-.113,1.846.4-.039,1.17-1.052,1.581-1.638.113-1.845-.4m2.5-1.015c-.116-.29-.487-.409-1.261-.094s-.96.66-.845.949.487.409,1.261.094.96-.66.845-.949" transform="translate(-68.852 -27.219)" fill="#474746"/><path d="M117.533,44.061l-.394-.743a.715.715,0,0,1,.335-1.078.671.671,0,0,1,.878.128l.012-.006c-.031-.1-.037-.219.174-.426l.865-.846.246.463-.753.693a.354.354,0,0,0-.108.477l.053.1,1.16-.6.231.436Zm.85-1.226a.414.414,0,0,0-.616-.174.367.367,0,0,0-.18.589l.094.178.8-.416Z" transform="translate(-67.479 -23.695)" fill="#474746"/><g transform="translate(10.383 10.384)" style="mix-blend-mode:multiply;isolation:isolate"><g clip-path="url(#d)"><path d="M63.76,44.146A19.617,19.617,0,1,1,44.144,24.53,19.616,19.616,0,0,1,63.76,44.146" transform="translate(-24.527 -24.53)" fill="#ffb900"/></g></g></g><g transform="translate(10.384 10.384)"><g clip-path="url(#e)"><path d="M49.521,63.661a19.831,19.831,0,0,0,2.011.1A19.6,19.6,0,0,0,69.222,52.578L59.5,26.234a19.543,19.543,0,0,0-22.167,4.4Z" transform="translate(-31.915 -24.53)" fill="#86c9cf"/><path d="M69.494,68.527A19.61,19.61,0,0,0,80.659,32.792a31.921,31.921,0,0,1-3.705,10.515C70,56.264,68.565,64.25,68.486,68.477c.336.017.667.051,1.008.051" transform="translate(-49.877 -29.294)" fill="#86c9cf"/><path d="M69.494,74.23A19.6,19.6,0,0,0,87.185,63.045L79.673,42.681a37.2,37.2,0,0,1-2.719,6.328C70,61.966,68.565,69.953,68.486,74.179c.336.017.667.051,1.008.051" transform="translate(-49.877 -34.997)" fill="#59b5ad"/><path d="M49.949,25.4A19.618,19.618,0,0,0,36.39,62.164Z" transform="translate(-24.527 -24.529)" fill="#dddddc"/><path d="M26.368,55.956c-.232-.432-.387-.813-.593-1.229a19.545,19.545,0,0,0,8.886,24c-.531-4.594-2.474-11.935-8.293-22.772" transform="translate(-24.528 -41.943)" fill="#e85620"/></g></g><g clip-path="url(#b)"><path d="M35.547,60.713h9.368S55.926,47.892,59.6,35.5a65.479,65.479,0,0,1-16.718,11.39,46.55,46.55,0,0,0,7.351-.363C46.892,50.98,40.961,56.3,35.547,60.713" transform="translate(-20.499 -20.471)" fill="#fff"/><path d="M38.1,64.784c0,.006-.005.013-.008.019,1.411-1.783,5.945-1.659,10.443.452.145.068.282.139.424.209q.581-.631,1.115-1.249c-5.59-2.188-10.762-2.015-11.974.569" transform="translate(-21.968 -36.157)" fill="#fff"/><path d="M60.743,74.253c-.166-3.64-4-6.375-6.841-8.153h0c-5.352-3.381-14.355-4.845-15.807-1.262,2.387-2.954,11.062-.156,14.647,3.049,5.584,4.566,1.481,9.188-4.795,6.624-.265.336-.5.632-.7.884a18.829,18.829,0,0,0,4.151,1.738l-.006.013a14.474,14.474,0,0,0,3.349.544h0c2.363.107,5.8-.6,6-3.438" transform="translate(-21.968 -36.192)" fill="#fff"/></g></g></g></g></g></svg>